<svg width="46" height="44" viewBox="0 0 46 44" fill="none" xmlns="http://www.w3.org/2000/svg">
<path d="M11.1379 39.869C11.135 39.8673 11.1316 39.8667 11.1284 39.8674C11.1251 39.8681 11.1222 39.8699 11.1203 39.8726C11.1183 39.8753 11.1174 39.8786 11.1178 39.882C11.1181 39.8853 11.1197 39.8883 11.1222 39.8905C12.1705 40.9245 13.3258 41.8211 14.5881 42.5802C14.9614 42.8047 15.3374 43.0251 15.7161 43.2414C15.7351 43.2519 15.7354 43.2631 15.7173 43.2751C15.0111 43.7346 14.0856 43.3781 13.3382 43.0489C12.9564 42.8807 12.2702 42.5164 11.2795 41.9562C5.89934 38.9159 1.95766 33.6645 0.607989 27.6763C0.175698 25.7589 -0.0105638 23.7206 0.000461014 21.5741C0.00162152 21.3209 0.0288937 21.1191 0.0822773 20.9687C0.188657 20.6667 0.366989 20.4127 0.617272 20.2069C0.621958 20.2029 0.627728 20.2004 0.633837 20.1997C0.639946 20.1991 0.646115 20.2003 0.651548 20.2031C0.656981 20.206 0.661429 20.2105 0.664317 20.2159C0.667206 20.2213 0.668403 20.2275 0.667755 20.2336C0.600058 20.9927 0.566404 21.734 0.566791 22.4575C0.567177 22.7568 0.602379 23.0495 0.672397 23.3356C0.673264 23.3393 0.675437 23.3424 0.678504 23.3445C0.681572 23.3466 0.685321 23.3474 0.68904 23.3468C0.69276 23.3462 0.696192 23.3443 0.698685 23.3414C0.701179 23.3385 0.702561 23.3347 0.70257 23.331C0.647252 22.102 0.693479 20.8774 0.841251 19.6573C0.841328 19.6547 0.842441 19.6522 0.844346 19.6504C0.84625 19.6486 0.84879 19.6476 0.851406 19.6477C0.854022 19.6478 0.8565 19.6489 0.858296 19.6508C0.860091 19.6527 0.861057 19.6553 0.86098 19.6579C0.891927 20.2499 0.936606 20.8439 0.995019 21.4398C1.019 21.6813 1.05246 21.8831 1.0954 22.0452C1.09668 22.0497 1.09945 22.0537 1.10326 22.0564C1.10707 22.0592 1.1117 22.0606 1.1164 22.0604C1.1211 22.0602 1.12559 22.0584 1.12915 22.0553C1.13272 22.0522 1.13513 22.048 1.13602 22.0434C1.53214 19.9138 1.92188 17.784 2.30524 15.6539C2.36964 15.2957 2.59478 14.756 2.77176 14.3443C4.0019 11.4906 5.60631 8.65152 7.7753 6.40268C10.6302 3.44377 14.179 1.42579 18.101 0.215008C18.3536 0.137081 18.5681 0.0994739 18.7445 0.102188C19.088 0.107616 19.417 0.188839 19.7315 0.345856C19.752 0.355936 19.7512 0.364272 19.7291 0.370863C18.9822 0.5903 18.2356 0.810126 17.4894 1.03034C17.3006 1.08617 17.1304 1.16681 16.9787 1.27226C16.9738 1.27481 16.9701 1.27921 16.9684 1.2845C16.9667 1.28979 16.9672 1.29553 16.9697 1.30047C16.9723 1.3054 16.9767 1.30913 16.982 1.31082C16.9872 1.31251 16.993 1.31203 16.9979 1.30948C18.0104 0.948922 19.0642 0.65175 20.1121 0.470889C20.1152 0.470398 20.1184 0.471055 20.121 0.472735C20.1236 0.474415 20.1255 0.477003 20.1264 0.48001C20.1273 0.483016 20.127 0.486233 20.1256 0.489053C20.1243 0.491873 20.122 0.4941 20.1191 0.495314C19.4386 0.756235 18.7702 1.04488 18.1137 1.36124C18.111 1.3626 18.1088 1.36473 18.1074 1.36735C18.1059 1.36998 18.1053 1.37298 18.1055 1.37598C18.1058 1.37897 18.1069 1.38183 18.1088 1.38418C18.1106 1.38652 18.1132 1.38826 18.116 1.38915C18.1543 1.40078 18.1971 1.40389 18.2443 1.39846C20.2934 1.14994 22.3422 0.901234 24.3909 0.652332C24.6702 0.618602 24.9356 0.607165 25.187 0.618021C26.7288 0.686643 28.2891 0.905888 29.7687 1.3531C31.2963 1.81446 32.8238 2.27679 34.351 2.74009C34.4632 2.77421 34.5702 2.82054 34.6719 2.87908C35.3299 3.25747 36.0067 3.68065 36.7022 4.1486C37.4014 4.61907 38.1494 5.14537 38.671 5.79612C39.599 6.95495 40.5265 8.11398 41.4533 9.2732C41.67 9.5442 42.0444 10.1178 42.5767 10.994C43.4865 12.4905 44.191 14.0776 44.69 15.7551C44.8066 16.1471 44.7759 16.5001 44.7097 16.8891C44.6552 17.2073 44.8148 17.6987 44.8763 18.0232C45.9787 23.8258 44.6442 29.8949 41.1609 34.6223C39.2362 37.2352 36.719 39.2991 33.8381 40.7733C32.4396 41.4886 31.1343 42.0314 29.9219 42.4017C28.527 42.8274 26.9562 43.0129 25.1754 43.224C24.799 43.2686 24.4136 43.2963 24.019 43.3071C23.1521 43.3316 22.2422 43.3932 21.4078 43.3391C19.9897 43.2465 18.5953 43.0123 17.2248 42.6366C16.2743 42.3755 15.3209 41.9713 14.392 41.6003C13.3661 41.1909 12.4063 40.6291 11.4791 40.0394C11.3746 39.9725 11.2493 39.9237 11.1379 39.869ZM36.2618 5.26284C36.2594 5.26003 36.258 5.25645 36.258 5.25274C36.2579 5.24902 36.2592 5.24541 36.2616 5.24255C36.2639 5.23969 36.2673 5.23776 36.2709 5.23711C36.2746 5.23646 36.2783 5.23713 36.2815 5.239C38.6867 6.92316 40.6317 9.14294 42.1369 11.6674C42.1442 11.6795 42.1533 11.6808 42.1641 11.6715C42.1723 11.6645 42.1729 11.6548 42.1659 11.6424C41.4444 10.4258 40.5984 9.2668 39.6278 8.16535C38.4319 6.8086 37.0852 5.69319 35.5823 4.68944C35.5816 4.68864 35.5811 4.68763 35.581 4.68655C35.5808 4.68548 35.581 4.68438 35.5815 4.68342C35.582 4.68246 35.5828 4.68169 35.5838 4.6812C35.5848 4.68072 35.5859 4.68055 35.5869 4.68072C35.7011 4.72375 35.7927 4.76872 35.862 4.81563C38.7151 6.74404 41.0431 9.40754 42.763 12.3909C42.7637 12.392 42.7647 12.393 42.7659 12.3938L42.7856 12.4002C42.7976 12.4041 42.8009 12.4002 42.7955 12.3885C41.5061 9.557 39.3662 7.22731 36.8966 5.31984C35.3117 4.09587 33.6412 3.14698 31.8849 2.47316C31.7081 2.4057 31.5209 2.35743 31.3232 2.32835C29.1194 2.00579 26.9071 1.7563 24.6863 1.5799C24.5985 1.57292 24.5116 1.57699 24.4257 1.59211C24.377 1.60103 24.3774 1.60626 24.4269 1.60782C26.2338 1.67527 27.9734 2.23821 29.6956 2.7366C32.841 3.6473 35.6067 5.22214 37.9927 7.4611C37.9948 7.46271 37.9974 7.46357 38 7.46352C38.0026 7.46347 38.0052 7.46252 38.0072 7.46083C38.0092 7.45913 38.0106 7.45679 38.0112 7.4542C38.0117 7.45161 38.0113 7.44891 38.0101 7.44656C37.4972 6.66302 36.9144 5.93511 36.2618 5.26284ZM42.3255 16.1337C43.7018 20.2365 43.6983 24.5522 42.4345 28.6824C42.0953 29.7908 41.7556 30.7071 41.4156 31.4313C40.5537 33.2675 39.3892 35.0096 37.9219 36.6577C37.918 36.662 37.9167 36.6659 37.9178 36.6693C37.9186 36.6717 37.92 36.6734 37.9219 36.6746C37.9265 36.6773 37.932 36.6759 37.9381 36.6705C38.4946 36.1401 39.0812 35.5772 39.4985 34.9259C39.9162 34.2722 40.3323 33.6284 40.7123 32.9457C41.24 31.9978 41.5806 31.3759 41.7342 31.0801C42.5692 29.4727 43.2579 27.4966 43.5811 25.6763C43.5985 25.5783 43.5954 25.4784 43.5718 25.3768C43.486 25.0087 43.374 24.6342 43.3902 24.251C43.4111 23.7392 43.4299 23.2272 43.4465 22.7151C43.4929 21.2992 43.386 19.8969 43.1256 18.5082C42.9748 17.701 42.6237 16.8891 42.3452 16.1128C42.3405 16.0996 42.3347 16.099 42.3278 16.111C42.3239 16.1184 42.3231 16.126 42.3255 16.1337Z" fill="#ED72C0"/>
<path d="M22.6272 7.53809C19.8069 7.53809 17.0498 8.37442 14.7048 9.94134C12.3597 11.5082 10.532 13.7354 9.45267 16.341C8.37337 18.9467 8.09097 21.8139 8.6412 24.5801C9.19142 27.3463 10.5496 29.8872 12.5439 31.8815C14.5382 33.8758 17.0791 35.2339 19.8452 35.7842C22.6114 36.3344 25.4786 36.052 28.0843 34.9727C30.69 33.8934 32.9171 32.0656 34.484 29.7206C36.0509 27.3755 36.8873 24.6185 36.8873 21.7981C36.8873 18.0161 35.3849 14.389 32.7106 11.7148C30.0363 9.04048 26.4092 7.53809 22.6272 7.53809ZM10.4798 21.7981C10.4803 19.502 11.1316 17.2531 12.3582 15.312C13.5847 13.3709 15.3363 11.8173 17.4099 10.8311C19.4834 9.84488 21.794 9.46657 24.0738 9.74C26.3535 10.0134 28.5091 10.9274 30.2907 12.3759L23.5779 19.0887L23.5092 18.5606C23.5913 18.552 23.6669 18.5123 23.7205 18.4497L25.9387 15.9145C25.9756 15.8724 26.0011 15.8215 26.0127 15.7667L26.694 12.7087C26.704 12.6653 26.7053 12.6203 26.6976 12.5764C26.69 12.5326 26.6736 12.4907 26.6495 12.4532C26.6254 12.4158 26.594 12.3836 26.5571 12.3585C26.5203 12.3334 26.4789 12.316 26.4352 12.3073C26.3477 12.2882 26.2563 12.304 26.1803 12.3513C26.1043 12.3987 26.0499 12.4738 26.0285 12.5608L25.3683 15.5343L23.5462 17.6205C23.6135 17.436 23.6474 17.2411 23.6466 17.0448C23.6622 16.787 23.6052 16.5301 23.4819 16.3032C23.3587 16.0763 23.1742 15.8885 22.9494 15.7614C22.9549 15.737 22.9549 15.7118 22.9494 15.6874V13.7544L23.5885 12.8196C23.6382 12.7446 23.6561 12.653 23.6383 12.5649C23.6205 12.4767 23.5683 12.3993 23.4934 12.3495C23.4185 12.2998 23.3268 12.2819 23.2387 12.2997C23.1505 12.3175 23.0731 12.3697 23.0233 12.4446L22.6272 13.0361L22.2311 12.4446C22.2065 12.4075 22.1748 12.3756 22.1379 12.3507C22.1009 12.3259 22.0594 12.3085 22.0158 12.2997C21.9721 12.2909 21.9272 12.2907 21.8835 12.2993C21.8398 12.3078 21.7982 12.3249 21.7611 12.3495C21.724 12.3742 21.6921 12.4058 21.6672 12.4428C21.6423 12.4797 21.625 12.5212 21.6162 12.5649C21.6074 12.6085 21.6072 12.6535 21.6158 12.6972C21.6243 12.7409 21.6414 12.7825 21.666 12.8196L22.2892 13.7544V15.6874C22.2862 15.712 22.2862 15.7368 22.2892 15.7614C22.0674 15.8906 21.8861 16.0793 21.7657 16.306C21.6454 16.5328 21.5907 16.7886 21.6079 17.0448C21.6076 17.2393 21.6416 17.4324 21.7083 17.6152L19.8861 15.529L19.2259 12.5555C19.216 12.5121 19.1976 12.4711 19.1717 12.4348C19.1459 12.3986 19.1131 12.3678 19.0753 12.3442C19.0375 12.3207 18.9954 12.3048 18.9515 12.2976C18.9076 12.2903 18.8626 12.2918 18.8193 12.302C18.7756 12.3107 18.7341 12.3282 18.6973 12.3532C18.6605 12.3783 18.6291 12.4105 18.605 12.4479C18.5808 12.4854 18.5645 12.5273 18.5568 12.5712C18.5492 12.615 18.5504 12.66 18.5605 12.7034L19.2418 15.7614C19.2534 15.8162 19.2788 15.8671 19.3157 15.9093L21.534 18.4444C21.5876 18.507 21.6632 18.5467 21.7452 18.5553L21.6449 19.3158L18.7453 18.851C17.8124 18.7085 16.8632 18.7085 15.9303 18.851L14.1768 19.1204C14.0228 19.1341 13.8757 19.1909 13.7524 19.2843C13.6291 19.3777 13.5346 19.504 13.4797 19.6486C13.4537 19.7492 13.4557 19.8551 13.4855 19.9547C13.5153 20.0543 13.5717 20.1438 13.6487 20.2137C14.3216 20.8164 15.1444 21.2268 16.0306 21.402C16.2334 21.4365 16.4405 21.4365 16.6433 21.402L18.8827 21.1168C19.1592 21.0798 19.4327 21.0234 19.7013 20.9478L21.4653 20.5147L21.3808 21.27L21.3438 21.3069C21.2704 21.3004 21.1971 21.3211 21.1378 21.365L19.0253 22.865C18.9612 22.9095 18.9146 22.9748 18.8932 23.0498L18.6344 24.0058L13.1945 29.4457C11.437 27.2846 10.4782 24.5837 10.4798 21.7981ZM22.6272 33.9456C19.715 33.9436 16.9016 32.8894 14.705 30.9774L19.6221 26.055L20.2611 29.8682L19.6273 30.7767C19.6026 30.8137 19.5854 30.8553 19.5768 30.899C19.5681 30.9428 19.5682 30.9878 19.5771 31.0315C19.5859 31.0752 19.6033 31.1167 19.6282 31.1536C19.6532 31.1906 19.6852 31.2222 19.7224 31.2467C19.7788 31.2841 19.8449 31.3043 19.9125 31.3048C19.9683 31.3048 20.0231 31.2907 20.0721 31.264C20.121 31.2372 20.1624 31.1986 20.1925 31.1517L20.8738 30.1323C20.9202 30.0604 20.939 29.9741 20.9266 29.8894L20.2664 25.9494L21.3914 24.2646L21.5604 24.0903L22.2364 28.5901C22.2517 28.6828 22.2994 28.7669 22.3709 28.8277C22.4425 28.8884 22.5334 28.9218 22.6272 28.9218C22.7211 28.9218 22.8119 28.8884 22.8835 28.8277C22.9551 28.7669 23.0028 28.6828 23.0181 28.5901L23.6835 24.0216L24.9669 25.9494L24.3067 29.8894C24.2944 29.9741 24.3131 30.0604 24.3596 30.1323L25.0409 31.1517C25.071 31.1986 25.1124 31.2372 25.1613 31.264C25.2102 31.2907 25.265 31.3048 25.3208 31.3048C25.3885 31.3043 25.4545 31.2841 25.5109 31.2467C25.5481 31.2222 25.5802 31.1906 25.6051 31.1536C25.63 31.1167 25.6474 31.0752 25.6563 31.0315C25.6651 30.9878 25.6652 30.9428 25.6566 30.899C25.6479 30.8553 25.6308 30.8137 25.606 30.7767L24.9986 29.8682L25.6588 25.9283C25.6712 25.8435 25.6524 25.7572 25.606 25.6853L24.0215 23.335C23.9965 23.2949 23.9624 23.2612 23.9221 23.2365C23.8818 23.2117 23.8363 23.1967 23.7892 23.1924L23.9476 22.1361L25.7275 23.3826L26.7151 27.0004C26.7293 27.058 26.7585 27.1108 26.7996 27.1536L29.5196 29.8682C29.5506 29.8999 29.5875 29.925 29.6284 29.9421C29.6692 29.9593 29.713 29.9681 29.7572 29.9681C29.8015 29.9681 29.8453 29.9593 29.8861 29.9421C29.927 29.925 29.9639 29.8999 29.9949 29.8682C30.0273 29.8372 30.0532 29.7999 30.0708 29.7586C30.0884 29.7173 30.0975 29.6728 30.0975 29.6279C30.0975 29.583 30.0884 29.5386 30.0708 29.4973C30.0532 29.456 30.0273 29.4187 29.9949 29.3876L27.3542 26.7469L26.3507 23.0657C26.3293 22.9907 26.2827 22.9254 26.2186 22.8808L24.2117 21.4443L24.8349 20.821L25.5373 20.9901C25.8075 21.0662 26.0829 21.1227 26.3612 21.1591L28.5953 21.4443C28.7981 21.4787 29.0052 21.4787 29.208 21.4443C30.1042 21.2597 30.9332 20.8342 31.6058 20.2137C31.6914 20.1419 31.754 20.0466 31.7859 19.9396C31.8179 19.8326 31.8176 19.7185 31.7853 19.6116C31.7304 19.467 31.6359 19.3408 31.5126 19.2474C31.3893 19.154 31.2423 19.0972 31.0882 19.0834L29.34 18.8141C28.5182 18.6891 27.6833 18.6749 26.8577 18.7718L31.8065 13.8759C33.3212 15.6365 34.2994 17.7945 34.6252 20.0941C34.951 22.3937 34.6108 24.7385 33.6447 26.8506C32.6787 28.9628 31.1274 30.7537 29.1747 32.0112C27.222 33.2686 24.9498 33.94 22.6272 33.9456Z" fill="white"/>
</svg>
