<svg width="768" height="663" viewBox="0 0 768 663" fill="none" xmlns="http://www.w3.org/2000/svg">
<path d="M235.158 768.78L21.3116 258.538L506.284 54.7003L737.275 562.561L235.158 768.78Z" fill="#F0F0E8"/>
<path d="M88.137 263.07L65.0054 210.582" stroke="#ECECDD" stroke-width="19.2537" stroke-linecap="round"/>
<path d="M184.014 221.608L160.882 169.119" stroke="#ECECDD" stroke-width="19.2537" stroke-linecap="round"/>
<path d="M278.091 176.755L254.959 124.266" stroke="#ECECDD" stroke-width="19.2537" stroke-linecap="round"/>
<path d="M373.032 134.382L349.901 81.8933" stroke="#ECECDD" stroke-width="19.2537" stroke-linecap="round"/>
<path d="M468.801 91.7209L445.669 39.2321" stroke="#ECECDD" stroke-width="19.2537" stroke-linecap="round"/>
<path d="M514.791 130.334L567.109 108.74" stroke="#ECECDD" stroke-width="19.2537" stroke-linecap="round"/>
<path d="M555.15 225.898L607.468 204.304" stroke="#ECECDD" stroke-width="19.2537" stroke-linecap="round"/>
<path d="M594.781 322.258L647.099 300.664" stroke="#ECECDD" stroke-width="19.2537" stroke-linecap="round"/>
<path d="M636.739 417.599L689.056 396.006" stroke="#ECECDD" stroke-width="19.2537" stroke-linecap="round"/>
<path d="M677.059 514.014L729.377 492.42" stroke="#ECECDD" stroke-width="19.2537" stroke-linecap="round"/>
<path d="M668.235 553.133L689.391 603.717" stroke="#ECECDD" stroke-width="19.2537" stroke-linecap="round"/>
<path d="M572.081 594.2L593.237 644.785" stroke="#ECECDD" stroke-width="19.2537" stroke-linecap="round"/>
<path d="M378.435 675.609L399.591 726.193" stroke="#ECECDD" stroke-width="19.2537" stroke-linecap="round"/>
<path d="M199.098 609.77L146.25 631.189" stroke="#ECECDD" stroke-width="19.2537" stroke-linecap="round"/>
<path d="M158.172 513.245L105.324 534.665" stroke="#ECECDD" stroke-width="19.2537" stroke-linecap="round"/>
<path d="M117.894 417.35L65.0461 438.77" stroke="#ECECDD" stroke-width="19.2537" stroke-linecap="round"/>
<path d="M76.9863 322.103L24.1381 343.522" stroke="#ECECDD" stroke-width="19.2537" stroke-linecap="round"/>
<path d="M481.48 646.869L497.122 685.002" stroke="#ECECDD" stroke-width="19.2537" stroke-linecap="round"/>
</svg>
