<svg width="249" height="65" viewBox="0 0 249 65" fill="none" xmlns="http://www.w3.org/2000/svg">
<mask id="mask0_1_6" style="mask-type:luminance" maskUnits="userSpaceOnUse" x="0" y="0" width="249" height="65">
<path d="M248.5 0.0498047H0.390625V64.856H248.5V0.0498047Z" fill="white"/>
</mask>
<g mask="url(#mask0_1_6)">
<path fill-rule="evenodd" clip-rule="evenodd" d="M13.987 14.0432H10.4142V22.3797C10.4142 27.4081 11.2744 28.9298 14.6817 28.9298C18.6515 28.9298 20.7025 26.2171 20.7025 21.0895C20.7025 16.5243 18.2876 14.0432 13.987 14.0432ZM0.390625 29.5253V29.0952C3.69875 28.4997 4.12881 27.4081 4.12881 20.0309V9.5111C4.12881 2.16706 3.69875 1.0423 0.390625 0.446842V0.0167847H15.6742C22.1912 0.0167847 26.194 2.33247 26.194 6.50071C26.194 10.4043 22.952 12.9185 17.2621 13.4809V13.6463C24.0437 14.0432 27.6827 16.6897 27.6827 21.2549C27.6827 26.4487 23.746 29.4922 17.0636 29.4922L0.390625 29.5253ZM14.1855 0.645326C11.2082 0.645326 10.4142 1.67085 10.4142 5.30978V13.3816H13.7224C17.5598 13.3816 19.4785 10.9998 19.4785 6.6992C19.4785 2.79561 17.626 0.645326 14.1855 0.645326ZM104.398 23.6037C104.398 28.1358 104.795 28.7644 107.408 29.1614V29.5253H95.4661V29.1283C97.9472 28.6982 98.3442 27.9374 98.3442 23.0413V14.2086C98.3442 9.5111 98.0465 8.91564 95.7639 8.55175V8.18785L104.365 7.89012L104.53 8.05553L104.398 13.547H104.563C105.589 9.64343 107.541 7.72472 110.452 7.72472C112.635 7.72472 113.892 8.9818 113.892 11.2313C113.892 12.9516 112.735 14.1425 111.114 14.1425C109.724 14.1425 108.897 13.4147 108.302 11.8599C107.971 10.9005 107.805 10.4705 107.243 10.4705C105.721 10.4705 104.398 14.6718 104.398 19.634V23.6037ZM64.8329 24.0338C64.8329 27.8381 66.8509 29.823 70.7544 29.823C73.3679 29.823 75.5181 28.6651 76.6429 26.6803L76.2459 26.3164C75.1873 27.6727 74.261 28.2682 73.1032 28.2682C71.5484 28.2682 70.8537 27.2096 70.8537 24.7285V8.91564H75.9813V8.2871H70.8537V1.14155H70.3905C69.0342 6.10373 66.5531 8.2871 62.0541 8.2871H57.5219V1.14155H57.0588C55.7025 6.10373 53.1221 8.38634 48.7223 8.55175V8.91564H51.4681V24.0669C51.4681 27.8712 53.486 29.8561 57.3896 29.8561C60.003 29.8561 62.1864 28.6982 63.2781 26.7134L62.9142 26.3495C61.8556 27.7058 60.9293 28.3013 59.7715 28.3013C58.2166 28.3013 57.5219 27.2427 57.5219 24.7616V8.94872H64.7998L64.8329 24.0338Z" fill="#C83AA2"/>
<path fill-rule="evenodd" clip-rule="evenodd" d="M239.833 29.9883C245.026 29.9883 248.268 27.408 248.268 23.339C248.268 19.8324 246.714 18.1453 241.718 16.0942C238.046 14.5725 236.955 13.4808 236.955 11.3636C236.955 9.37872 238.443 8.18779 240.461 8.18779C243.339 8.18779 245.258 10.0403 246.35 13.7785H246.879L246.714 7.85698H246.184L245.093 8.91558C243.869 8.12163 242.281 7.69157 240.428 7.69157C235.565 7.69157 232.389 10.1727 232.389 14.1755C232.389 17.5498 234.077 19.4685 238.94 21.4534C242.446 22.909 243.604 23.9345 243.604 25.9193C243.604 28.0696 242.181 29.426 239.833 29.426C236.326 29.426 233.944 27.1764 232.687 22.7435H232.125L232.323 29.8229H232.819L234.044 28.5989C235.565 29.5252 237.517 29.9883 239.833 29.9883ZM200.135 9.34564C201.922 9.34564 202.583 10.5696 202.583 13.7454V23.6037C202.583 28.1689 202.285 28.7643 199.97 29.1613V29.5252H211.482V29.1282C209.001 28.6982 208.637 27.9373 208.637 23.0413V14.5394C208.637 9.84185 206.718 7.69157 202.583 7.69157C198.944 7.69157 196.364 9.80877 195.57 13.58C195.372 9.51104 193.453 7.69157 189.549 7.69157C186.109 7.69157 183.595 9.54412 182.734 12.8523H182.569L182.701 8.02239L182.536 7.85698L173.935 8.15471V8.5186C176.217 8.8825 176.515 9.47796 176.515 14.1755V23.0082C176.515 27.9042 176.118 28.6651 173.637 29.0951V29.459H185.182V29.1282C182.867 28.7313 182.569 28.1689 182.569 23.5706V18.7076C182.569 12.6538 184.19 9.31256 187.101 9.31256C188.888 9.31256 189.549 10.5366 189.549 13.7124V23.5706C189.549 28.1358 189.251 28.7313 186.936 29.1282V29.4921H198.448V29.1282C195.967 28.6982 195.603 27.9373 195.603 23.0413V18.7407C195.603 12.6868 197.224 9.34564 200.135 9.34564ZM142.706 9.54412C142.706 2.13392 142.342 1.07532 139.2 0.479859V0.0167236H152.829V0.446781C149.521 1.04224 149.124 2.13392 149.124 9.51104V20.0309C149.124 27.3749 149.554 28.4997 152.829 29.0951V29.5252H139.233V29.0951C142.375 28.4997 142.739 27.4411 142.739 20.0309V14.9694H131.028V20.0309C131.028 27.4411 131.392 28.4997 134.535 29.0951V29.5252H120.906V29.0951C124.214 28.4997 124.611 27.408 124.611 20.0309V9.51104C124.611 2.167 124.181 1.04224 120.906 0.446781V0.0167236H134.535V0.446781C131.392 1.04224 131.028 2.10084 131.028 9.51104V14.2086H142.739L142.706 9.54412ZM48.5569 53.4099C47.0021 53.4099 46.0097 52.3843 46.0097 50.8626C46.0097 49.4732 47.2006 48.4477 48.6231 48.4477C50.4426 48.4477 51.6335 49.6717 51.6335 51.6235C51.6335 53.7407 50.1779 55.8248 47.2337 55.8248C44.1571 55.8248 42.1722 53.7407 42.1722 50.4987C42.1722 45.2388 44.918 42.2946 50.3433 42.2946C54.0153 42.2946 55.1732 43.1216 57.8197 43.1216C61.5909 43.1216 63.1788 42.1953 63.1788 40.045C63.1788 38.5564 62.418 37.0346 60.4993 37.0346H60.3338C60.3008 39.4827 59.3083 40.7067 57.6212 40.7067C56.331 40.7728 55.2393 39.8135 55.1732 38.5233C55.1732 38.4241 55.1732 38.3248 55.1732 38.2256C55.1732 36.7038 56.5626 35.6452 58.4482 35.6452C61.7894 35.6452 63.8735 37.4978 63.8735 40.3428C63.8735 44.908 61.6571 47.2237 57.4558 47.2237C55.0408 47.2237 53.7176 46.4959 52.1959 46.1651C54.9747 47.356 56.3972 49.374 56.3972 52.2851C56.3972 59.2322 50.4426 64.1944 42.0399 64.1944C34.4312 64.1944 29.1051 59.6622 29.1051 53.5753C29.1051 49.9032 31.2223 47.0252 34.9936 45.3711C33.7696 43.9155 32.8764 42.0299 32.8764 40.3428C32.8764 36.5053 35.9199 33.7596 40.3197 33.7596C43.5286 33.7596 45.745 35.6121 45.745 38.2256C45.745 39.9127 45.1165 41.1036 43.5617 41.8976L43.3632 41.6329C43.7932 41.236 44.0248 40.6405 43.9917 40.0781C43.9917 38.2587 42.5031 37.3324 40.022 37.3324C37.0116 37.3324 34.729 39.0195 34.729 41.7322C34.729 43.2539 34.8944 44.0479 35.5229 45.0403C36.2838 44.1471 37.4085 43.6509 38.5664 43.6509C39.9889 43.6509 40.8821 44.4448 40.8821 45.6027C40.8821 46.7605 39.9558 47.4222 38.7318 47.4222C37.5078 47.4222 36.3499 46.7936 35.3906 45.7681C33.9019 47.0913 33.2403 48.6462 33.2403 50.8626C33.2403 56.1887 37.2101 59.1329 43.5617 59.1329C50.211 59.1329 54.8093 56.2548 54.8093 51.0611C54.8093 47.0583 51.7327 45.9997 48.7223 45.9997C45.3811 45.9997 42.8669 47.9184 42.8669 50.7634C42.8669 53.3437 44.5872 55.1632 47.2337 55.1632C48.8877 55.1632 50.0787 54.3031 50.1779 53.0129C49.6486 53.3106 49.0862 53.4429 48.5569 53.4099ZM47.4983 26.0848C46.0427 27.9373 44.3556 28.7974 41.9076 28.7974C37.6732 28.7974 35.6883 25.2908 35.6883 17.7483H48.6231C48.6892 17.2851 48.7223 16.8551 48.7223 16.3919C48.7223 11.1982 45.0503 7.69157 39.625 7.69157C33.6704 7.69157 29.3036 12.356 29.3036 18.6745C29.3036 25.8532 33.4388 29.9553 40.7167 29.9553C43.7932 29.9553 46.0097 28.8967 47.9615 26.5148L47.4983 26.0848ZM39.625 8.15471C41.9407 8.15471 42.9662 10.4704 42.9662 15.2341C42.9662 16.7558 42.6354 17.1859 41.4114 17.1859H35.7214C36.0191 10.5696 37.1108 8.15471 39.625 8.15471ZM94.2752 26.0848C92.8527 27.9373 91.1325 28.7974 88.6845 28.7974C84.4501 28.7974 82.4652 25.2908 82.4652 17.7483H95.4C95.4661 17.2851 95.4992 16.8551 95.4661 16.3919C95.4661 11.1982 91.7941 7.69157 86.3688 7.69157C80.4142 7.69157 76.0474 12.356 76.0474 18.6745C76.0474 25.8532 80.1826 29.9553 87.4605 29.9553C90.537 29.9553 92.7535 28.8967 94.7053 26.5148L94.2752 26.0848ZM86.4019 8.15471C88.7176 8.15471 89.7431 10.4704 89.7431 15.2341C89.7431 16.7558 89.4123 17.1859 88.1883 17.1859H82.4983C82.7629 10.5696 83.8877 8.15471 86.4019 8.15471Z" fill="#C83AA2"/>
<path fill-rule="evenodd" clip-rule="evenodd" d="M221.539 61.5478C221.539 61.217 221.605 60.9193 221.737 60.6215C222.134 59.6953 223.027 59.0998 224.02 59.0998C224.681 59.0998 225.277 59.3644 225.74 59.7945C226.203 60.2576 226.468 60.8862 226.468 61.5147C226.468 62.1763 226.203 62.8049 225.74 63.235C225.509 63.4665 225.244 63.6319 224.946 63.7643C224.02 64.1612 222.994 63.9297 222.267 63.235C222.035 63.0034 221.87 62.7387 221.737 62.441C221.605 62.2094 221.572 61.8786 221.539 61.5478ZM226.17 61.5478C226.17 60.3238 225.178 59.3644 223.987 59.3644C223.689 59.3644 223.424 59.4306 223.16 59.5299C222.895 59.6291 222.63 59.7945 222.432 59.993C222.002 60.423 221.803 60.9854 221.803 61.5478C221.803 62.7387 222.763 63.7312 223.954 63.7312H223.987C224.582 63.7312 225.145 63.4996 225.542 63.1026C225.74 62.9041 225.905 62.6395 226.005 62.3748C226.137 62.1433 226.203 61.8455 226.17 61.5478ZM223.027 60.1915H224.185C224.483 60.1584 224.748 60.2907 224.946 60.4561C225.078 60.5885 225.178 60.7869 225.145 60.9854C225.145 61.3493 224.913 61.6801 224.549 61.7463L225.244 62.7057H224.681L224.053 61.8125H223.524V62.7057H223.027V60.1915ZM224.152 61.4486C224.483 61.4486 224.648 61.2832 224.648 61.0516C224.648 60.7869 224.45 60.6546 224.152 60.6546H223.524V61.4816L224.152 61.4486ZM212.342 64.1281C217.536 64.1281 220.778 61.5478 220.778 57.4788C220.778 53.9722 219.223 52.2851 214.228 50.234C210.556 48.7123 209.431 47.6206 209.431 45.5034C209.431 43.5185 210.92 42.3276 212.938 42.3276C215.816 42.3276 217.734 44.1801 218.826 47.9183H219.388L219.223 41.9968H218.727L217.635 43.0554C216.411 42.2614 214.856 41.8314 212.971 41.8314C208.108 41.8314 204.932 44.3125 204.932 48.3153C204.932 51.6896 206.619 53.6083 211.482 55.5932C214.989 57.0488 216.147 58.0743 216.147 60.0592C216.147 62.2094 214.724 63.5658 212.375 63.5658C208.869 63.5658 206.487 61.3162 205.23 56.8833H204.667L204.866 63.9627H205.362L206.586 62.7387C208.075 63.665 210.026 64.1281 212.342 64.1281ZM126.331 57.7435C126.331 62.2756 126.728 62.9041 129.341 63.3011V63.665H113.165C110.551 63.665 109.228 62.5733 109.063 60.3238H108.897C108.037 62.8049 105.92 64.1281 102.81 64.1281C99.0058 64.1281 96.624 61.9779 96.624 58.5374C96.624 54.0714 101.355 51.2265 108.765 51.2265C108.765 51.2265 108.864 47.9845 108.864 45.4042C108.864 43.0885 108.103 42.3276 105.821 42.3276C104.795 42.3276 103.968 42.6915 103.637 43.2539C103.373 43.6839 103.273 44.4117 103.273 46.2643C103.273 48.1168 102.413 48.9438 100.594 48.9438C99.0389 48.9438 97.9803 48.183 97.9803 46.562C97.9803 43.9155 101.52 41.8645 106.019 41.8645C111.808 41.8645 114.852 43.8493 114.852 47.6537C114.852 49.2747 114.686 55.7255 114.686 58.769C114.686 62.4741 115.183 63.3011 117.432 63.3011C119.748 63.3011 120.31 62.1433 120.31 57.2142V48.3153C120.31 43.6178 120.012 43.0223 117.73 42.6584V42.2945L126.331 41.9968L126.496 42.1622L126.364 47.6868H126.529C127.555 43.7832 129.507 41.8645 132.418 41.8645C134.601 41.8645 135.858 43.1216 135.858 45.3711C135.858 47.0913 134.7 48.2822 133.079 48.2822C131.69 48.2822 130.863 47.5544 130.268 45.9996C129.937 45.0403 129.771 44.6102 129.209 44.6102C127.687 44.6102 126.364 48.8115 126.364 53.7737L126.331 57.7435ZM108.765 51.7227C104.96 51.7227 102.876 54.0384 102.876 58.372C102.876 61.0847 103.803 62.5072 105.457 62.5072C107.243 62.5072 108.599 60.7869 108.632 58.372L108.765 51.7227ZM177.706 60.2246C176.284 62.0771 174.563 62.9372 172.115 62.9372C167.881 62.9372 165.896 59.4306 165.896 51.8881H178.831C178.897 51.4249 178.93 50.9949 178.93 50.5318C178.93 45.338 175.258 41.8314 169.833 41.8314C163.878 41.8314 159.511 46.4958 159.511 52.8144C159.511 59.993 163.647 64.0951 170.924 64.0951C174.001 64.0951 176.217 63.0365 178.169 60.6546L177.706 60.2246ZM169.833 42.2945C172.148 42.2945 173.174 44.6102 173.174 49.3408C173.174 50.8626 172.843 51.2926 171.619 51.2926H165.896C166.194 44.6764 167.286 42.2945 169.833 42.2945ZM150.778 59.9268H150.613C149.686 62.6395 147.602 64.0951 144.691 64.0951C139.233 64.0951 135.792 59.7945 135.792 52.9136C135.792 46.3966 139.63 41.7983 145.187 41.7983C148.165 41.7983 149.752 43.4193 150.513 45.3049H150.679V39.3503C150.679 34.6527 150.348 33.9911 147.801 33.5941V33.1972L156.567 32.8994L156.733 33.0648V57.545C156.733 62.1433 157.13 62.838 159.611 63.2019V63.5658C158.817 63.5658 150.844 63.8635 150.844 63.8635L150.679 63.6981L150.778 59.9268ZM150.679 49.5393C150.679 45.6357 148.958 42.8569 146.411 42.8569C143.5 42.8569 142.276 45.9996 142.276 53.0128C142.276 59.8937 143.434 62.9372 146.18 62.9372C148.925 62.9372 150.712 60.0922 150.712 56.1556V49.5393H150.679ZM201.028 57.1811C201.028 62.0771 201.359 62.838 203.873 63.268V63.6319H192.295V63.268C194.677 62.9041 195.008 62.2425 195.008 57.7104V47.8522C195.008 44.7756 194.346 43.4524 192.46 43.4524C189.483 43.4524 187.862 46.7936 187.862 52.8474V57.7104C187.862 62.2425 188.193 62.8711 190.575 63.268V63.6319H178.93V63.268C181.411 62.838 181.808 62.0771 181.808 57.1811V48.3153C181.808 43.6178 181.51 43.0223 179.228 42.6584V42.2945L187.829 41.9968L187.994 42.1622L187.862 46.9921H188.027C188.888 43.6839 191.501 41.8314 194.908 41.8314C199.11 41.8314 201.028 43.9817 201.028 48.6792V57.1811ZM82.8291 33.528C73.0701 33.528 66.5862 40.0119 66.5862 48.9108C66.5862 58.372 72.4746 64.2605 81.9359 64.2605C86.2034 64.2605 89.6438 63.7973 92.9519 62.5733V55.9571C92.9519 50.8956 93.3158 50.1679 96.3262 49.7378V49.3077H83.1268V49.7378C86.6003 50.2009 87.0304 50.8956 87.0304 55.9571V58.3389C87.0304 62.2425 85.9718 63.5327 82.5313 63.5327C76.709 63.5327 73.7979 58.7028 73.7979 48.9769C73.7979 39.1187 76.8414 34.2227 82.8952 34.2227C87.6259 34.2227 90.934 37.5639 92.1249 43.4854H92.7204L92.4226 33.7596H91.8603L90.0739 35.4467C88.1552 34.1565 85.7733 33.528 82.8291 33.528ZM229.478 26.0847C228.023 27.9373 226.336 28.7974 223.888 28.7974C219.653 28.7974 217.668 25.2908 217.668 17.7482H230.603C230.669 17.2851 230.702 16.855 230.702 16.3919C230.702 11.1981 227.03 7.69153 221.605 7.69153C215.65 7.69153 211.284 12.356 211.284 18.6745C211.284 25.8531 215.419 29.9552 222.697 29.9552C225.773 29.9552 227.99 28.8966 229.941 26.5148L229.478 26.0847ZM221.605 8.15467C223.921 8.15467 224.946 10.4704 224.946 15.2341C224.946 16.7558 224.615 17.1858 223.391 17.1858H217.668C217.966 10.5696 219.058 8.15467 221.605 8.15467ZM162.985 29.9883C156.633 29.9883 152.2 25.39 152.2 18.7737C152.2 12.2567 156.633 7.69153 162.985 7.69153C169.337 7.69153 173.769 12.2567 173.769 18.7737C173.769 25.39 169.337 29.9883 162.985 29.9883ZM162.985 8.15467C159.908 8.15467 158.684 11.1651 158.684 18.7737C158.684 26.3824 159.941 29.5252 162.985 29.5252C166.028 29.5252 167.286 26.4486 167.286 18.7737C167.286 11.0989 166.062 8.15467 162.985 8.15467Z" fill="#C83AA2"/>
</g>
</svg>
