<svg width="23" height="18" viewBox="0 0 23 18" fill="none" xmlns="http://www.w3.org/2000/svg">
<path d="M4.57129 1.30835C4.57129 0.756065 5.019 0.30835 5.57129 0.30835H21.999C22.5513 0.30835 22.999 0.756065 22.999 1.30835C22.999 1.86063 22.5513 2.30835 21.999 2.30835H5.57129C5.019 2.30835 4.57129 1.86063 4.57129 1.30835Z" fill="black"/>
<path d="M0.1875 8.9646C0.1875 8.41232 0.635215 7.9646 1.1875 7.9646H21.999C22.5513 7.9646 22.999 8.41232 22.999 8.9646C22.999 9.51688 22.5513 9.9646 21.999 9.9646H1.1875C0.635215 9.9646 0.1875 9.51688 0.1875 8.9646Z" fill="black"/>
<path d="M4.57129 16.6208C4.57129 16.0686 5.019 15.6208 5.57129 15.6208H21.999C22.5513 15.6208 22.999 16.0686 22.999 16.6208C22.999 17.1731 22.5513 17.6208 21.999 17.6208H5.57129C5.019 17.6208 4.57129 17.1731 4.57129 16.6208Z" fill="black"/>
</svg>
