<svg width="42" height="41" viewBox="0 0 42 41" fill="none" xmlns="http://www.w3.org/2000/svg">
<path d="M10.4747 37.0654C10.4721 37.0639 10.469 37.0633 10.4661 37.0639C10.4631 37.0645 10.4605 37.0662 10.4587 37.0687C10.4569 37.0712 10.4561 37.0742 10.4565 37.0772C10.4568 37.0802 10.4582 37.083 10.4605 37.085C11.4119 38.0287 12.4603 38.847 13.6059 39.5398C13.9447 39.7447 14.2859 39.9459 14.6296 40.1433C14.6468 40.1529 14.6471 40.1631 14.6306 40.1741C13.9898 40.5934 13.1498 40.268 12.4716 39.9676C12.1251 39.814 11.5023 39.4816 10.6032 38.9703C5.72055 36.1955 2.14335 31.4027 0.91847 25.9374C0.526151 24.1875 0.357112 22.3272 0.367118 20.3682C0.368171 20.1371 0.392921 19.9529 0.441369 19.8156C0.537912 19.54 0.699754 19.3082 0.926895 19.1203C0.931147 19.1167 0.936383 19.1144 0.941928 19.1138C0.947472 19.1132 0.953071 19.1143 0.958001 19.1169C0.962932 19.1195 0.966968 19.1236 0.96959 19.1286C0.972211 19.1335 0.973298 19.1392 0.972709 19.1448C0.911273 19.8376 0.88073 20.5141 0.881081 21.1744C0.881432 21.4476 0.913379 21.7147 0.976922 21.9758C0.977709 21.9792 0.979681 21.9821 0.982465 21.9839C0.985249 21.9858 0.988651 21.9866 0.992027 21.9861C0.995402 21.9855 0.998517 21.9838 1.00078 21.9811C1.00304 21.9784 1.0043 21.9751 1.00431 21.9716C0.954103 20.8499 0.996055 19.7323 1.13016 18.6188C1.13023 18.6164 1.13124 18.6141 1.13297 18.6125C1.1347 18.6108 1.137 18.6099 1.13938 18.61C1.14175 18.6101 1.144 18.6111 1.14563 18.6128C1.14726 18.6146 1.14814 18.6169 1.14807 18.6193C1.17615 19.1596 1.2167 19.7017 1.26971 20.2456C1.29148 20.466 1.32185 20.6502 1.36081 20.7981C1.36198 20.8022 1.36449 20.8058 1.36795 20.8084C1.3714 20.8109 1.37561 20.8122 1.37987 20.812C1.38414 20.8118 1.38821 20.8102 1.39145 20.8074C1.39468 20.8045 1.39687 20.8007 1.39768 20.7965C1.75717 18.8528 2.11087 16.909 2.45878 14.965C2.51723 14.6381 2.72155 14.1455 2.88217 13.7697C3.99856 11.1653 5.45461 8.57409 7.42305 6.52164C10.0139 3.82113 13.2346 1.97938 16.7939 0.874333C17.0232 0.803211 17.2178 0.768888 17.3779 0.771365C17.6897 0.776319 17.9883 0.850449 18.2737 0.993754C18.2923 1.00295 18.2916 1.01056 18.2716 1.01658C17.5937 1.21685 16.9161 1.41748 16.2389 1.61846C16.0676 1.66941 15.9131 1.74301 15.7755 1.83926C15.771 1.84158 15.7676 1.8456 15.7661 1.85043C15.7646 1.85525 15.765 1.8605 15.7673 1.865C15.7696 1.8695 15.7736 1.8729 15.7784 1.87445C15.7832 1.87599 15.7884 1.87555 15.7929 1.87323C16.7118 1.54416 17.6681 1.27294 18.6191 1.10787C18.6219 1.10742 18.6248 1.10802 18.6272 1.10955C18.6296 1.11109 18.6313 1.11345 18.6321 1.11619C18.6329 1.11894 18.6326 1.12187 18.6314 1.12445C18.6302 1.12702 18.6281 1.12905 18.6254 1.13016C18.0079 1.3683 17.4013 1.63173 16.8055 1.92046C16.8031 1.92171 16.8011 1.92365 16.7998 1.92605C16.7984 1.92844 16.7978 1.93118 16.7981 1.93392C16.7983 1.93665 16.7993 1.93926 16.801 1.9414C16.8027 1.94354 16.805 1.94512 16.8076 1.94594C16.8424 1.95656 16.8812 1.95939 16.924 1.95443C18.7836 1.72762 20.643 1.50063 22.5023 1.27347C22.7558 1.24268 22.9966 1.23224 23.2248 1.24215C24.624 1.30478 26.04 1.50488 27.3828 1.91303C28.7692 2.3341 30.1554 2.75606 31.5414 3.1789C31.6432 3.21004 31.7403 3.25232 31.8326 3.30575C32.4298 3.6511 33.044 4.03732 33.6752 4.46441C34.3097 4.89379 34.9885 5.37414 35.462 5.96806C36.3042 7.02569 37.1459 8.0835 37.987 9.14148C38.1836 9.38882 38.5234 9.91233 39.0065 10.712C39.8322 12.0778 40.4715 13.5263 40.9244 15.0574C41.0302 15.4151 41.0023 15.7373 40.9423 16.0923C40.8928 16.3827 41.0376 16.8312 41.0934 17.1273C42.094 22.4233 40.8828 27.9623 37.7216 32.2769C35.9749 34.6616 33.6905 36.5453 31.0759 37.8907C29.8068 38.5436 28.6221 39.039 27.5219 39.3769C26.2559 39.7654 24.8304 39.9347 23.2143 40.1274C22.8727 40.1681 22.5228 40.1934 22.1647 40.2033C21.378 40.2256 20.5523 40.2818 19.795 40.2325C18.508 40.1479 17.2426 39.9342 15.9988 39.5913C15.1362 39.353 14.271 38.9841 13.4279 38.6455C12.4969 38.2718 11.6259 37.7591 10.7844 37.2209C10.6896 37.1599 10.5758 37.1153 10.4747 37.0654ZM33.2755 5.48135C33.2733 5.47878 33.2721 5.47551 33.272 5.47212C33.272 5.46873 33.2732 5.46544 33.2753 5.46283C33.2775 5.46021 33.2805 5.45846 33.2838 5.45786C33.2871 5.45727 33.2905 5.45788 33.2934 5.45959C35.4762 6.99667 37.2413 9.0226 38.6073 11.3266C38.614 11.3376 38.6223 11.3388 38.6321 11.3303C38.6395 11.324 38.64 11.3151 38.6337 11.3038C37.9789 10.1935 37.2111 9.13564 36.3303 8.13038C35.245 6.89212 34.0228 5.87411 32.6589 4.95802C32.6582 4.95729 32.6578 4.95637 32.6576 4.95538C32.6575 4.9544 32.6577 4.9534 32.6581 4.95253C32.6586 4.95165 32.6593 4.95094 32.6602 4.9505C32.6611 4.95006 32.6621 4.9499 32.6631 4.95006C32.7666 4.98933 32.8498 5.03038 32.9127 5.07319C35.502 6.8332 37.6147 9.26409 39.1755 11.9869C39.1762 11.9879 39.1771 11.9889 39.1782 11.9896L39.1961 11.9954C39.207 11.9989 39.21 11.9954 39.205 11.9848C38.0349 9.4005 36.0928 7.27426 33.8516 5.53336C32.4133 4.41629 30.8972 3.55026 29.3033 2.93528C29.1429 2.87371 28.973 2.82966 28.7936 2.80312C26.7936 2.50873 24.7858 2.28103 22.7703 2.12003C22.6906 2.11366 22.6118 2.11738 22.5339 2.13118C22.4897 2.13932 22.49 2.14409 22.5349 2.14551C24.1748 2.20708 25.7535 2.72086 27.3165 3.17572C30.171 4.00689 32.681 5.4442 34.8464 7.48763C34.8483 7.48911 34.8506 7.48989 34.853 7.48984C34.8554 7.4898 34.8577 7.48893 34.8595 7.48738C34.8614 7.48584 34.8626 7.4837 34.8631 7.48134C34.8636 7.47897 34.8633 7.47651 34.8622 7.47436C34.3966 6.75925 33.8678 6.09491 33.2755 5.48135ZM38.7785 15.4029C40.0276 19.1474 40.0244 23.0862 38.8775 26.8557C38.5696 27.8673 38.2614 28.7036 37.9528 29.3646C37.1706 31.0404 36.1137 32.6304 34.7821 34.1345C34.7786 34.1384 34.7774 34.142 34.7784 34.1452C34.7791 34.1473 34.7804 34.1489 34.7821 34.1499C34.7863 34.1524 34.7912 34.1512 34.7969 34.1462C35.3019 33.6622 35.8343 33.1484 36.2129 32.5539C36.592 31.9574 36.9696 31.3698 37.3145 30.7467C37.7934 29.8815 38.1025 29.314 38.2419 29.044C38.9997 27.577 39.6247 25.7734 39.9181 24.1122C39.9339 24.0226 39.931 23.9315 39.9096 23.8388C39.8317 23.5028 39.7301 23.161 39.7448 22.8113C39.7638 22.3442 39.7808 21.8769 39.7959 21.4095C39.838 20.1173 39.7409 18.8374 39.5047 17.57C39.3678 16.8333 39.0492 16.0923 38.7964 15.3838C38.7922 15.3717 38.7869 15.3712 38.7806 15.3822C38.7771 15.3889 38.7764 15.3958 38.7785 15.4029Z" fill="#0BC1DF"/>
<g clip-path="url(#clip0_1_1182)">
<path d="M22.8013 11.0526C22.6841 13.9992 23.3111 16.1791 24.6696 17.5376C26.0283 18.8963 28.2079 19.5232 31.1547 19.406L22.8013 11.0526Z" fill="white"/>
<path d="M30.4812 21.0729C27.4173 21.073 25.0739 20.2796 23.5007 18.7065C21.6929 16.8987 20.9154 14.072 21.1881 10.3052C16.0993 10.7273 12.1008 14.9906 12.1008 20.1883C12.1008 25.6659 16.5413 30.1064 22.0189 30.1064C27.2167 30.1064 31.48 26.1079 31.9021 21.0191C31.4129 21.0545 30.9384 21.0729 30.4812 21.0729Z" fill="white"/>
</g>
<defs>
<clipPath id="clip0_1_1182">
<rect width="19.8013" height="19.8013" fill="white" transform="translate(12.1008 10.3052)"/>
</clipPath>
</defs>
</svg>
