<svg width="42" height="40" viewBox="0 0 42 40" fill="none" xmlns="http://www.w3.org/2000/svg">
<path d="M10.108 35.8386C10.1054 35.8371 10.1023 35.8366 10.0994 35.8372C10.0964 35.8377 10.0938 35.8394 10.092 35.8418C10.0902 35.8442 10.0894 35.8472 10.0898 35.8502C10.0901 35.8532 10.0915 35.8559 10.0938 35.8579C11.0452 36.7841 12.0936 37.5872 13.2392 38.2672C13.578 38.4683 13.9192 38.6657 14.2629 38.8595C14.2801 38.8689 14.2804 38.8789 14.2639 38.8897C13.6231 39.3012 12.7831 38.9819 12.1049 38.6871C11.7584 38.5363 11.1356 38.2101 10.2365 37.7082C5.35385 34.9848 1.77665 30.2808 0.55177 24.9167C0.159452 23.1992 -0.00958705 21.3733 0.000418385 19.4506C0.00147159 19.2238 0.026222 19.043 0.0746694 18.9083C0.171213 18.6377 0.333055 18.4103 0.560196 18.2259C0.564448 18.2223 0.569684 18.2201 0.575229 18.2195C0.580773 18.2189 0.586371 18.2199 0.591302 18.2225C0.596233 18.2251 0.600269 18.2291 0.60289 18.2339C0.605512 18.2388 0.606599 18.2443 0.60601 18.2498C0.544573 18.9298 0.514031 19.5938 0.514382 20.2419C0.514733 20.51 0.54668 20.7722 0.610223 21.0285C0.61101 21.0318 0.612982 21.0346 0.615766 21.0364C0.61855 21.0383 0.621952 21.039 0.625327 21.0385C0.628703 21.038 0.631818 21.0363 0.634081 21.0336C0.636344 21.031 0.637598 21.0277 0.637606 21.0243C0.587404 19.9234 0.629356 18.8265 0.763464 17.7336C0.763534 17.7312 0.764544 17.729 0.766272 17.7274C0.768001 17.7258 0.770305 17.7249 0.77268 17.725C0.775054 17.725 0.777303 17.726 0.778933 17.7278C0.780562 17.7295 0.781438 17.7317 0.781369 17.7341C0.809454 18.2644 0.850002 18.7965 0.903013 19.3302C0.92478 19.5466 0.955147 19.7274 0.994116 19.8725C0.995276 19.8766 0.997788 19.8801 1.00125 19.8826C1.0047 19.8851 1.00891 19.8863 1.01317 19.8862C1.01744 19.886 1.02151 19.8844 1.02475 19.8816C1.02798 19.8789 1.03017 19.8751 1.03098 19.871C1.39047 17.9633 1.74417 16.0555 2.09208 14.1475C2.15053 13.8266 2.35485 13.3431 2.51547 12.9743C3.63186 10.4181 5.08792 7.87491 7.05635 5.86047C9.64723 3.20996 12.8679 1.40232 16.4272 0.317736C16.6565 0.247932 16.8511 0.214244 17.0112 0.216675C17.323 0.221537 17.6216 0.294295 17.907 0.434946C17.9256 0.443976 17.9249 0.451443 17.9049 0.457346C17.227 0.653912 16.5494 0.850825 15.8722 1.04808C15.7009 1.09809 15.5464 1.17033 15.4088 1.26479C15.4043 1.26707 15.4009 1.27101 15.3994 1.27575C15.3979 1.28049 15.3983 1.28564 15.4006 1.29006C15.4029 1.29448 15.4069 1.29781 15.4117 1.29933C15.4165 1.30084 15.4217 1.30041 15.4262 1.29813C16.3451 0.975155 17.3014 0.708957 18.2524 0.546947C18.2552 0.546507 18.2581 0.547095 18.2605 0.5486C18.2629 0.550106 18.2646 0.552424 18.2654 0.555117C18.2662 0.55781 18.2659 0.560692 18.2647 0.563217C18.2635 0.565743 18.2614 0.567738 18.2587 0.568826C17.6412 0.802551 17.0346 1.06111 16.4388 1.3445C16.4364 1.34571 16.4344 1.34762 16.4331 1.34997C16.4317 1.35232 16.4311 1.35501 16.4314 1.3577C16.4316 1.36038 16.4326 1.36294 16.4343 1.36504C16.436 1.36714 16.4383 1.3687 16.4409 1.3695C16.4757 1.37992 16.5145 1.3827 16.5573 1.37784C18.4169 1.15522 20.2763 0.932437 22.1356 0.709478C22.3891 0.679264 22.6299 0.669019 22.8581 0.678743C24.2573 0.740213 25.6733 0.936606 27.0161 1.3372C28.4025 1.75048 29.7887 2.16462 31.1747 2.57963C31.2765 2.61019 31.3736 2.65169 31.4659 2.70413C32.0631 3.04308 32.6773 3.42215 33.3085 3.84133C33.9431 4.26276 34.6218 4.73421 35.0953 5.31713C35.9375 6.35518 36.7792 7.3934 37.6203 8.43179C37.8169 8.67454 38.1567 9.18836 38.6398 9.97323C39.4655 11.3138 40.1048 12.7354 40.5577 14.2381C40.6635 14.5892 40.6356 14.9054 40.5756 15.2539C40.5261 15.5389 40.6709 15.9791 40.7267 16.2698C41.7273 21.4676 40.5161 26.9041 37.3549 31.1387C35.6082 33.4793 33.3238 35.3281 30.7092 36.6487C29.4401 37.2894 28.2554 37.7756 27.1552 38.1073C25.8892 38.4886 24.4637 38.6548 22.8476 38.8439C22.506 38.8838 22.1561 38.9086 21.798 38.9184C21.0113 38.9402 20.1856 38.9955 19.4283 38.947C18.1413 38.864 16.8759 38.6542 15.6321 38.3177C14.7695 38.0838 13.9043 37.7218 13.0612 37.3894C12.1302 37.0227 11.2592 36.5195 10.4177 35.9912C10.3229 35.9313 10.2091 35.8876 10.108 35.8386ZM32.9088 4.83944C32.9066 4.83692 32.9054 4.83371 32.9053 4.83038C32.9053 4.82705 32.9065 4.82382 32.9086 4.82126C32.9108 4.81869 32.9138 4.81697 32.9171 4.81639C32.9204 4.8158 32.9238 4.8164 32.9267 4.81808C35.1095 6.3267 36.8746 8.31511 38.2406 10.5765C38.2473 10.5872 38.2556 10.5885 38.2654 10.5801C38.2728 10.5739 38.2733 10.5652 38.267 10.5541C37.6122 9.46428 36.8444 8.42606 35.9636 7.43941C34.8783 6.22408 33.6561 5.22493 32.2922 4.3258C32.2915 4.32508 32.2911 4.32418 32.2909 4.32321C32.2908 4.32225 32.291 4.32127 32.2915 4.32041C32.2919 4.31955 32.2926 4.31885 32.2935 4.31842C32.2944 4.31798 32.2954 4.31783 32.2964 4.31798C32.3999 4.35653 32.4831 4.39682 32.546 4.43884C35.1353 6.16625 37.248 8.55213 38.8088 11.2245C38.8095 11.2255 38.8104 11.2264 38.8115 11.2271L38.8294 11.2328C38.8403 11.2363 38.8433 11.2328 38.8383 11.2224C37.6682 8.68601 35.7261 6.59914 33.4849 4.89049C32.0466 3.7941 30.5305 2.94411 28.9366 2.34052C28.7762 2.28009 28.6063 2.23685 28.4269 2.21081C26.4269 1.92186 24.4191 1.69838 22.4036 1.54037C22.3239 1.53412 22.2451 1.53776 22.1672 1.55131C22.123 1.55929 22.1233 1.56398 22.1682 1.56537C23.8081 1.6258 25.3868 2.13006 26.9498 2.5765C29.8043 3.39228 32.3143 4.80298 34.4797 6.80856C34.4816 6.81001 34.4839 6.81078 34.4863 6.81074C34.4887 6.81069 34.491 6.80984 34.4928 6.80832C34.4947 6.80681 34.4959 6.80471 34.4964 6.80239C34.4969 6.80006 34.4966 6.79765 34.4955 6.79554C34.0299 6.09367 33.5011 5.44163 32.9088 4.83944ZM38.4118 14.5772C39.6609 18.2524 39.6577 22.1183 38.5108 25.8179C38.2029 26.8108 37.8947 27.6317 37.5861 28.2804C36.8039 29.9251 35.747 31.4857 34.4154 32.962C34.4119 32.9658 34.4107 32.9693 34.4117 32.9724C34.4124 32.9745 34.4137 32.9761 34.4154 32.9771C34.4196 32.9795 34.4245 32.9783 34.4302 32.9735C34.9352 32.4984 35.4676 31.9941 35.8462 31.4107C36.2253 30.8251 36.6029 30.2485 36.9478 29.6369C37.4267 28.7878 37.7358 28.2307 37.8752 27.9657C38.633 26.5259 39.258 24.7557 39.5514 23.1252C39.5672 23.0374 39.5643 22.9479 39.5429 22.857C39.465 22.5272 39.3634 22.1917 39.3781 21.8484C39.3971 21.39 39.4141 20.9314 39.4292 20.4726C39.4713 19.2043 39.3742 17.9482 39.138 16.7042C39.0011 15.9812 38.6825 15.2539 38.4297 14.5585C38.4255 14.5467 38.4202 14.5462 38.4139 14.5569C38.4104 14.5635 38.4097 14.5703 38.4118 14.5772Z" fill="#0BC1DF"/>
<path fill-rule="evenodd" clip-rule="evenodd" d="M29.1334 10.2578C29.1334 10.9432 29.6809 11.4987 30.3563 11.4987C31.0317 11.4987 31.5792 10.9432 31.5792 10.2578C31.5792 9.57264 31.0317 9.01709 30.3563 9.01709C29.6809 9.01709 29.1334 9.57264 29.1334 10.2578ZM20.4119 10.2578C20.4119 10.9432 20.9594 11.4987 21.6348 11.4987C22.3102 11.4987 22.8577 10.9432 22.8577 10.2578C22.8577 9.57264 22.3102 9.01709 21.6348 9.01709C20.9594 9.01709 20.4119 9.57264 20.4119 10.2578ZM24.2806 14.8986C24.2806 16.3814 18.9888 16.3814 18.9888 14.8986C18.9888 13.4159 20.1735 12.2139 21.6348 12.2139C23.0961 12.2139 24.2806 13.4159 24.2806 14.8986ZM11.6904 10.2578C11.6904 10.9432 12.2379 11.4987 12.9133 11.4987C13.5887 11.4987 14.1362 10.9432 14.1362 10.2578C14.1362 9.57264 13.5887 9.01709 12.9133 9.01709C12.2379 9.01709 11.6904 9.57264 11.6904 10.2578ZM15.5591 14.8986C15.5591 16.3814 10.2673 16.3814 10.2673 14.8986C10.2673 13.4159 11.4521 12.2139 12.9133 12.2139C14.3746 12.2139 15.5591 13.4159 15.5591 14.8986ZM14.4315 18.1867L13.0599 17.8679C12.584 17.7573 12.1054 18.0619 11.9964 18.5448L10.2897 26.1066C10.1807 26.5894 10.4809 27.0751 10.9568 27.1857L12.3285 27.5045C12.8043 27.6151 13.283 27.3105 13.3919 26.8275L15.0987 19.2658C15.2077 18.7829 14.9075 18.2973 14.4315 18.1867ZM22.766 26.0204C23.9051 27.1764 25.0459 28.3338 26.1846 29.4892C26.3461 29.6532 26.4269 29.8686 26.4269 30.0834C26.4268 30.5486 26.0569 30.9237 25.5988 30.9237C25.3871 30.9237 25.1748 30.8418 25.0133 30.6779C23.8364 29.4836 22.6595 28.2893 21.4827 27.095C21.3532 26.9636 21.1433 26.9636 21.0138 27.095C20.8844 27.2263 20.8844 27.4393 21.0138 27.5707L23.6328 30.2285C23.7862 30.3907 23.863 30.6006 23.863 30.81C23.8629 31.2748 23.4933 31.6502 23.0349 31.6503C22.8232 31.6503 22.6109 31.5684 22.4494 31.4044L19.5823 28.495C19.4529 28.3637 19.243 28.3637 19.1135 28.495C18.984 28.6264 18.984 28.8394 19.1135 28.9708L20.4501 30.3271C20.6054 30.4898 20.6829 30.7009 20.6829 30.9116C20.6829 31.3768 20.313 31.7518 19.8549 31.7519C19.6347 31.7519 19.4244 31.6647 19.2686 31.5066L14.1706 26.3914L15.689 19.6639H19.5574C19.3235 19.9309 19.084 20.2187 18.8373 20.5152C18.1809 21.304 17.471 22.1569 16.7146 22.8006L16.7152 22.8013C16.5757 22.9197 16.5568 23.1304 16.6732 23.2724C17.44 24.207 18.2495 24.4493 19.0791 24.3125C19.8593 24.1839 20.6264 23.7103 21.3854 23.177C22.0299 22.7241 22.8743 22.802 23.4285 23.3643L27.6881 27.6867C27.8497 27.8506 27.9305 28.0661 27.9305 28.281C27.9304 28.7461 27.5602 29.1211 27.1024 29.1212C26.8907 29.1212 26.6784 29.0393 26.5168 28.8753L23.2348 25.5447C23.1053 25.4134 22.8954 25.4134 22.7659 25.5447C22.6365 25.676 22.6365 25.889 22.766 26.0204ZM28.1569 27.2108L28.1706 27.2248L29.1844 26.7707L27.7472 20.4028L27.5411 20.4938C26.8814 20.785 26.1829 20.7389 25.5568 20.3841C25.1401 20.1478 24.7669 19.9257 24.4329 19.7268C23.0621 18.9108 22.4003 18.5168 21.485 18.8641C20.8891 19.0901 20.1579 19.9689 19.3424 20.9489C18.7417 21.6706 18.0976 22.4447 17.3993 23.0858C17.9171 23.6028 18.4434 23.7374 18.9729 23.6501C19.6262 23.5424 20.3171 23.1117 21.0098 22.625C21.9141 21.9895 23.1195 22.0992 23.8973 22.8885L28.1569 27.2108ZM28.8379 18.1867L30.2096 17.8679C30.6855 17.7573 31.1641 18.0619 31.273 18.5448L32.9798 26.1066C33.0888 26.5895 32.7886 27.0752 32.3126 27.1858L30.941 27.5046C30.4651 27.6151 29.9865 27.3105 29.8775 26.8276L28.1708 19.2658C28.0619 18.7829 28.362 18.2973 28.8379 18.1867ZM33.0021 14.8986C33.0021 16.3814 27.7103 16.3814 27.7103 14.8986C27.7103 13.4159 28.8951 12.2138 30.3563 12.2138C31.8175 12.2139 33.0021 13.4159 33.0021 14.8986Z" fill="white"/>
</svg>
