<svg width="42" height="41" viewBox="0 0 42 41" fill="none" xmlns="http://www.w3.org/2000/svg">
<path d="M10.4747 37.0797C10.4721 37.0781 10.469 37.0776 10.4661 37.0782C10.4631 37.0788 10.4605 37.0805 10.4587 37.083C10.4569 37.0854 10.4561 37.0885 10.4565 37.0915C10.4568 37.0945 10.4582 37.0973 10.4605 37.0993C11.4119 38.043 12.4603 38.8613 13.6059 39.5541C13.9447 39.759 14.2859 39.9601 14.6296 40.1576C14.6468 40.1671 14.6471 40.1774 14.6306 40.1884C13.9898 40.6077 13.1498 40.2823 12.4716 39.9819C12.1251 39.8283 11.5023 39.4959 10.6032 38.9846C5.72055 36.2098 2.14335 31.417 0.91847 25.9517C0.526151 24.2018 0.357112 22.3415 0.367118 20.3824C0.368171 20.1514 0.392921 19.9672 0.441369 19.8299C0.537912 19.5543 0.699754 19.3225 0.926895 19.1346C0.931147 19.131 0.936383 19.1287 0.941928 19.1281C0.947472 19.1275 0.953071 19.1286 0.958001 19.1312C0.962932 19.1338 0.966968 19.1379 0.96959 19.1428C0.972211 19.1478 0.973298 19.1534 0.972709 19.159C0.911273 19.8519 0.88073 20.5284 0.881081 21.1887C0.881432 21.4618 0.913379 21.729 0.976922 21.9901C0.977709 21.9935 0.979681 21.9963 0.982465 21.9982C0.985249 22.0001 0.988651 22.0009 0.992027 22.0003C0.995402 21.9998 0.998517 21.9981 1.00078 21.9954C1.00304 21.9927 1.0043 21.9893 1.00431 21.9859C0.954103 20.8642 0.996055 19.7466 1.13016 18.6331C1.13023 18.6307 1.13124 18.6284 1.13297 18.6268C1.1347 18.6251 1.137 18.6242 1.13938 18.6243C1.14175 18.6244 1.144 18.6254 1.14563 18.6271C1.14726 18.6289 1.14814 18.6312 1.14807 18.6336C1.17615 19.1739 1.2167 19.716 1.26971 20.2598C1.29148 20.4803 1.32185 20.6645 1.36081 20.8124C1.36198 20.8165 1.36449 20.8201 1.36795 20.8226C1.3714 20.8252 1.37561 20.8264 1.37987 20.8263C1.38414 20.8261 1.38821 20.8244 1.39145 20.8216C1.39468 20.8188 1.39687 20.815 1.39768 20.8108C1.75717 18.8671 2.11087 16.9233 2.45878 14.9793C2.51723 14.6523 2.72155 14.1598 2.88217 13.784C3.99856 11.1796 5.45461 8.58838 7.42305 6.53592C10.0139 3.83541 13.2346 1.99366 16.7939 0.888615C17.0232 0.817493 17.2178 0.783171 17.3779 0.785647C17.6897 0.790601 17.9883 0.864731 18.2737 1.00804C18.2923 1.01724 18.2916 1.02484 18.2716 1.03086C17.5937 1.23113 16.9161 1.43176 16.2389 1.63274C16.0676 1.6837 15.9131 1.7573 15.7755 1.85354C15.771 1.85586 15.7676 1.85988 15.7661 1.86471C15.7646 1.86954 15.765 1.87478 15.7673 1.87928C15.7696 1.88379 15.7736 1.88718 15.7784 1.88873C15.7832 1.89027 15.7884 1.88983 15.7929 1.88751C16.7118 1.55844 17.6681 1.28722 18.6191 1.12215C18.6219 1.1217 18.6248 1.1223 18.6272 1.12384C18.6296 1.12537 18.6313 1.12773 18.6321 1.13047C18.6329 1.13322 18.6326 1.13615 18.6314 1.13873C18.6302 1.1413 18.6281 1.14333 18.6254 1.14444C18.0079 1.38258 17.4013 1.64601 16.8055 1.93475C16.8031 1.93599 16.8011 1.93793 16.7998 1.94033C16.7984 1.94272 16.7978 1.94546 16.7981 1.9482C16.7983 1.95093 16.7993 1.95354 16.801 1.95568C16.8027 1.95782 16.805 1.9594 16.8076 1.96022C16.8424 1.97084 16.8812 1.97367 16.924 1.96872C18.7836 1.7419 20.643 1.51491 22.5023 1.28775C22.7558 1.25696 22.9966 1.24653 23.2248 1.25643C24.624 1.31906 26.04 1.51916 27.3828 1.92732C28.7692 2.34839 30.1554 2.77034 31.5414 3.19318C31.6432 3.22432 31.7403 3.26661 31.8326 3.32004C32.4298 3.66538 33.044 4.0516 33.6752 4.47869C34.3097 4.90808 34.9885 5.38842 35.462 5.98234C36.3042 7.03997 37.1459 8.09778 37.987 9.15576C38.1836 9.4031 38.5234 9.92661 39.0065 10.7263C39.8322 12.0921 40.4715 13.5406 40.9244 15.0716C41.0302 15.4294 41.0023 15.7515 40.9423 16.1066C40.8928 16.397 41.0376 16.8454 41.0934 17.1416C42.094 22.4375 40.8828 27.9766 37.7216 32.2912C35.9749 34.6759 33.6905 36.5595 31.0759 37.905C29.8068 38.5579 28.6221 39.0532 27.5219 39.3912C26.2559 39.7797 24.8304 39.949 23.2143 40.1417C22.8727 40.1823 22.5228 40.2076 22.1647 40.2176C21.378 40.2398 20.5523 40.2961 19.795 40.2467C18.508 40.1622 17.2426 39.9485 15.9988 39.6056C15.1362 39.3673 14.271 38.9984 13.4279 38.6598C12.4969 38.2861 11.6259 37.7734 10.7844 37.2352C10.6896 37.1742 10.5758 37.1296 10.4747 37.0797ZM33.2755 5.49563C33.2733 5.49306 33.2721 5.4898 33.272 5.4864C33.272 5.48301 33.2732 5.47972 33.2753 5.47711C33.2775 5.4745 33.2805 5.47274 33.2838 5.47215C33.2871 5.47155 33.2905 5.47216 33.2934 5.47387C35.4762 7.01095 37.2413 9.03688 38.6073 11.3409C38.614 11.3519 38.6223 11.3531 38.6321 11.3446C38.6395 11.3383 38.64 11.3294 38.6337 11.3181C37.9789 10.2077 37.2111 9.14993 36.3303 8.14466C35.245 6.9064 34.0228 5.88839 32.6589 4.9723C32.6582 4.97157 32.6578 4.97065 32.6576 4.96967C32.6575 4.96868 32.6577 4.96768 32.6581 4.96681C32.6586 4.96593 32.6593 4.96523 32.6602 4.96478C32.6611 4.96434 32.6621 4.96418 32.6631 4.96434C32.7666 5.00361 32.8498 5.04466 32.9127 5.08747C35.502 6.84748 37.6147 9.27838 39.1755 12.0012C39.1762 12.0022 39.1771 12.0031 39.1782 12.0038L39.1961 12.0097C39.207 12.0132 39.21 12.0097 39.205 11.9991C38.0349 9.41478 36.0928 7.28854 33.8516 5.54764C32.4133 4.43057 30.8972 3.56454 29.3033 2.94956C29.1429 2.888 28.973 2.84394 28.7936 2.8174C26.7936 2.52301 24.7858 2.29531 22.7703 2.13431C22.6906 2.12794 22.6118 2.13166 22.5339 2.14546C22.4897 2.1536 22.49 2.15838 22.5349 2.15979C24.1748 2.22136 25.7535 2.73514 27.3165 3.19C30.171 4.02117 32.681 5.45848 34.8464 7.50191C34.8483 7.50339 34.8506 7.50417 34.853 7.50413C34.8554 7.50408 34.8577 7.50321 34.8595 7.50167C34.8614 7.50012 34.8626 7.49799 34.8631 7.49562C34.8636 7.49325 34.8633 7.49079 34.8622 7.48864C34.3966 6.77353 33.8678 6.10919 33.2755 5.49563ZM38.7785 15.4172C40.0276 19.1617 40.0244 23.1005 38.8775 26.8699C38.5696 27.8816 38.2614 28.7179 37.9528 29.3789C37.1706 31.0547 36.1137 32.6446 34.7821 34.1488C34.7786 34.1527 34.7774 34.1563 34.7784 34.1594C34.7791 34.1616 34.7804 34.1632 34.7821 34.1642C34.7863 34.1667 34.7912 34.1655 34.7969 34.1605C35.3019 33.6764 35.8343 33.1627 36.2129 32.5682C36.592 31.9716 36.9696 31.3841 37.3145 30.761C37.7934 29.8958 38.1025 29.3283 38.2419 29.0583C38.9997 27.5913 39.6247 25.7877 39.9181 24.1264C39.9339 24.0369 39.931 23.9458 39.9096 23.8531C39.8317 23.5171 39.7301 23.1753 39.7448 22.8255C39.7638 22.3585 39.7808 21.8912 39.7959 21.4238C39.838 20.1316 39.7409 18.8517 39.5047 17.5843C39.3678 16.8476 39.0492 16.1066 38.7964 15.3981C38.7922 15.386 38.7869 15.3855 38.7806 15.3965C38.7771 15.4032 38.7764 15.4101 38.7785 15.4172Z" fill="#0BC1DF"/>
<path d="M20.5345 15.6177C21.4538 15.6177 22.3435 15.2089 22.9536 14.5075C23.5697 13.7993 23.8588 12.8379 23.7417 11.899C23.6269 10.9781 23.1215 10.135 22.3739 9.60654C21.6081 9.06507 20.6282 8.88805 19.7259 9.12498C18.8499 9.35497 18.0942 9.96698 17.6723 10.7827C17.2371 11.6245 17.1829 12.644 17.5253 13.5293C17.8566 14.3858 18.5424 15.0767 19.3863 15.4037C19.7522 15.5455 20.143 15.6177 20.5345 15.6177Z" fill="white"/>
<path d="M28.5556 9.02813C28.1193 8.71895 27.5201 8.82908 27.2169 9.27407C27.2169 9.27407 24.2141 13.9442 23.1843 15.1948C22.4159 16.128 21.6839 16.3886 20.5807 16.233C20.0359 16.1562 13.2862 14.4444 13.2862 14.4444C12.8126 14.3277 12.3153 14.6049 12.1539 15.0734C11.998 15.5256 12.1958 16.0422 12.6118 16.2658C12.6497 16.2862 12.689 16.304 12.7292 16.3191L20.0503 19.0677C20.092 19.1963 20.451 20.187 20.6546 21.224C20.7842 21.8837 20.8392 22.5559 20.8765 23.2269C20.9028 23.6975 20.8957 24.1682 20.8904 24.6392C20.8849 25.1245 20.9629 25.5994 21.1515 26.0469C21.1354 26.6599 21.1042 27.2728 21.0532 27.8839C20.9973 28.5524 20.8945 29.217 20.7874 29.8796C20.6521 30.7167 20.4399 31.0385 20.4257 31.0603C20.163 31.1617 19.845 31.1269 19.573 31.0905C19.248 31.047 18.9279 30.9687 18.6136 30.8748C18.3374 30.7923 18.0649 30.6968 17.7964 30.5912C17.583 30.5072 17.3752 30.4114 17.1648 30.3203C17.0669 30.2779 16.9696 30.231 16.8619 30.2072C16.7513 30.1827 16.6373 30.1748 16.5244 30.1836C16.3009 30.201 16.0838 30.2844 15.9047 30.4218C15.5307 30.7089 15.3576 31.2107 15.4718 31.6733C15.5526 32.0008 15.769 32.2826 16.0614 32.4409C17 32.9644 18.0037 33.4136 19.0525 33.6457C19.6203 33.7714 20.2095 33.8333 20.7877 33.7485C21.3885 33.6605 21.9595 33.4035 22.3957 32.9675C22.4997 32.8635 22.5957 32.7491 22.6821 32.6293C22.6821 32.6297 22.6819 32.6301 22.6815 32.6304C22.6804 32.6319 22.6792 32.6335 22.6782 32.6352C22.7256 32.5548 22.7857 32.4808 22.8356 32.4019C22.9207 32.2678 22.9992 32.1294 23.0718 31.9879C23.2172 31.7047 23.3415 31.4104 23.452 31.1115C23.6739 30.5114 23.8456 29.8925 23.9929 29.2694C24.0897 28.8604 24.1759 28.4488 24.254 28.0356C24.4172 28.0283 24.579 28.0089 24.7393 27.9769C25.0294 28.5817 25.2982 29.1974 25.5263 29.8294C24.9155 30.0725 24.6166 30.806 24.8763 31.4198C25.052 31.8355 25.2656 32.2327 25.5654 32.5704C25.8912 32.9374 26.3038 33.2224 26.7749 33.3546C27.0325 33.427 27.303 33.4513 27.5674 33.4098C28.0986 33.3248 28.5433 32.903 28.6379 32.3324C28.8424 31.1037 28.6471 29.8478 28.3703 28.6466C28.2203 27.9959 28.0377 27.3528 27.8339 26.7177C27.7005 26.3017 27.5624 25.8853 27.4022 25.4791C27.3705 25.3985 27.3401 25.3173 27.3063 25.2375C27.3458 24.9674 27.3492 24.6965 27.3272 24.4247C27.3052 24.153 27.287 23.8806 27.2595 23.6095C27.1946 22.9679 27.1069 22.3271 26.9885 21.6934C26.7418 20.3736 26.3951 19.0695 25.8852 17.8287C25.7467 17.4916 25.5979 17.1594 25.4321 16.8354L28.855 10.2962C29.0826 9.8629 28.9607 9.31523 28.5556 9.02813C28.9607 9.31523 28.1193 8.71895 28.5556 9.02813Z" fill="white"/>
</svg>
