<svg width="42" height="40" viewBox="0 0 42 40" fill="none" xmlns="http://www.w3.org/2000/svg">
<path d="M10.108 36.0433C10.1054 36.0418 10.1023 36.0413 10.0994 36.0419C10.0964 36.0425 10.0938 36.0441 10.092 36.0465C10.0902 36.049 10.0894 36.0519 10.0898 36.0549C10.0901 36.0579 10.0915 36.0606 10.0938 36.0626C11.0452 36.9888 12.0936 37.7919 13.2392 38.4719C13.578 38.673 13.9192 38.8704 14.2629 39.0642C14.2801 39.0736 14.2804 39.0837 14.2639 39.0944C13.6231 39.506 12.7831 39.1866 12.1049 38.8918C11.7584 38.7411 11.1356 38.4148 10.2365 37.9129C5.35385 35.1895 1.77665 30.4855 0.55177 25.1214C0.159452 23.4039 -0.00958705 21.578 0.000418385 19.6553C0.00147159 19.4285 0.026222 19.2477 0.0746694 19.113C0.171213 18.8425 0.333055 18.615 0.560196 18.4306C0.564448 18.427 0.569684 18.4248 0.575229 18.4242C0.580773 18.4236 0.586371 18.4246 0.591302 18.4272C0.596233 18.4298 0.600269 18.4338 0.60289 18.4386C0.605512 18.4435 0.606599 18.449 0.60601 18.4545C0.544573 19.1345 0.514031 19.7985 0.514382 20.4466C0.514733 20.7147 0.54668 20.9769 0.610223 21.2332C0.61101 21.2365 0.612982 21.2393 0.615766 21.2411C0.61855 21.243 0.621952 21.2437 0.625327 21.2432C0.628703 21.2427 0.631818 21.241 0.634081 21.2384C0.636344 21.2357 0.637598 21.2324 0.637606 21.229C0.587404 20.1281 0.629356 19.0312 0.763464 17.9383C0.763534 17.9359 0.764544 17.9337 0.766272 17.9321C0.768001 17.9305 0.770305 17.9296 0.77268 17.9297C0.775054 17.9298 0.777303 17.9308 0.778933 17.9325C0.780562 17.9342 0.781438 17.9365 0.781369 17.9388C0.809454 18.4691 0.850002 19.0012 0.903013 19.5349C0.92478 19.7513 0.955147 19.9321 0.994116 20.0772C0.995276 20.0813 0.997788 20.0849 1.00125 20.0873C1.0047 20.0898 1.00891 20.0911 1.01317 20.0909C1.01744 20.0907 1.02151 20.0891 1.02475 20.0863C1.02798 20.0836 1.03017 20.0798 1.03098 20.0757C1.39047 18.168 1.74417 16.2602 2.09208 14.3522C2.15053 14.0313 2.35485 13.5479 2.51547 13.179C3.63186 10.6228 5.08792 8.07962 7.05635 6.06518C9.64723 3.41467 12.8679 1.60703 16.4272 0.522448C16.6565 0.452643 16.8511 0.418956 17.0112 0.421387C17.323 0.426249 17.6216 0.499007 17.907 0.639658C17.9256 0.648688 17.9249 0.656154 17.9049 0.662058C17.227 0.858623 16.5494 1.05554 15.8722 1.2528C15.7009 1.30281 15.5464 1.37504 15.4088 1.4695C15.4043 1.47178 15.4009 1.47573 15.3994 1.48046C15.3979 1.4852 15.3983 1.49035 15.4006 1.49477C15.4029 1.49919 15.4069 1.50253 15.4117 1.50404C15.4165 1.50555 15.4217 1.50512 15.4262 1.50284C16.3451 1.17987 17.3014 0.913669 18.2524 0.751659C18.2552 0.751219 18.2581 0.751807 18.2605 0.753312C18.2629 0.754818 18.2646 0.757136 18.2654 0.759829C18.2662 0.762522 18.2659 0.765404 18.2647 0.767929C18.2635 0.770455 18.2614 0.77245 18.2587 0.773538C17.6412 1.00726 17.0346 1.26582 16.4388 1.54921C16.4364 1.55043 16.4344 1.55233 16.4331 1.55468C16.4317 1.55704 16.4311 1.55973 16.4314 1.56241C16.4316 1.56509 16.4326 1.56765 16.4343 1.56975C16.436 1.57186 16.4383 1.57341 16.4409 1.57421C16.4757 1.58463 16.5145 1.58741 16.5573 1.58255C18.4169 1.35994 20.2763 1.13715 22.1356 0.91419C22.3891 0.883976 22.6299 0.873731 22.8581 0.883455C24.2573 0.944925 25.6733 1.14132 27.0161 1.54191C28.4025 1.95519 29.7887 2.36933 31.1747 2.78434C31.2765 2.8149 31.3736 2.8564 31.4659 2.90884C32.0631 3.2478 32.6773 3.62686 33.3085 4.04604C33.9431 4.46747 34.6218 4.93892 35.0953 5.52184C35.9375 6.55989 36.7792 7.59811 37.6203 8.6365C37.8169 8.87926 38.1567 9.39307 38.6398 10.1779C39.4655 11.5185 40.1048 12.9401 40.5577 14.4428C40.6635 14.7939 40.6356 15.1101 40.5756 15.4586C40.5261 15.7436 40.6709 16.1838 40.7267 16.4745C41.7273 21.6723 40.5161 27.1088 37.3549 31.3435C35.6082 33.684 33.3238 35.5328 30.7092 36.8534C29.4401 37.4941 28.2554 37.9803 27.1552 38.312C25.8892 38.6933 24.4637 38.8595 22.8476 39.0486C22.506 39.0885 22.1561 39.1133 21.798 39.1231C21.0113 39.145 20.1856 39.2002 19.4283 39.1517C18.1413 39.0687 16.8759 38.859 15.6321 38.5224C14.7695 38.2885 13.9043 37.9265 13.0612 37.5941C12.1302 37.2274 11.2592 36.7242 10.4177 36.1959C10.3229 36.136 10.2091 36.0923 10.108 36.0433ZM32.9088 5.04415C32.9066 5.04163 32.9054 5.03842 32.9053 5.03509C32.9053 5.03176 32.9065 5.02853 32.9086 5.02597C32.9108 5.02341 32.9138 5.02168 32.9171 5.0211C32.9204 5.02052 32.9238 5.02112 32.9267 5.02279C35.1095 6.53141 36.8746 8.51982 38.2406 10.7812C38.2473 10.792 38.2556 10.7932 38.2654 10.7848C38.2728 10.7786 38.2733 10.7699 38.267 10.7588C37.6122 9.66899 36.8444 8.63077 35.9636 7.64413C34.8783 6.42879 33.6561 5.42964 32.2922 4.53051C32.2915 4.52979 32.2911 4.52889 32.2909 4.52792C32.2908 4.52696 32.291 4.52598 32.2915 4.52512C32.2919 4.52426 32.2926 4.52357 32.2935 4.52313C32.2944 4.5227 32.2954 4.52254 32.2964 4.52269C32.3999 4.56124 32.4831 4.60153 32.546 4.64355C35.1353 6.37096 37.248 8.75684 38.8088 11.4292C38.8095 11.4303 38.8104 11.4311 38.8115 11.4318L38.8294 11.4376C38.8403 11.441 38.8433 11.4376 38.8383 11.4271C37.6682 8.89072 35.7261 6.80386 33.4849 5.0952C32.0466 3.99881 30.5305 3.14882 28.9366 2.54523C28.7762 2.4848 28.6063 2.44157 28.4269 2.41552C26.4269 2.12658 24.4191 1.90309 22.4036 1.74508C22.3239 1.73883 22.2451 1.74247 22.1672 1.75602C22.123 1.76401 22.1233 1.76869 22.1682 1.77008C23.8081 1.83051 25.3868 2.33478 26.9498 2.78121C29.8043 3.59699 32.3143 5.00769 34.4797 7.01328C34.4816 7.01473 34.4839 7.01549 34.4863 7.01545C34.4887 7.0154 34.491 7.01455 34.4928 7.01303C34.4947 7.01152 34.4959 7.00942 34.4964 7.0071C34.4969 7.00477 34.4966 7.00236 34.4955 7.00025C34.0299 6.29838 33.5011 5.64635 32.9088 5.04415ZM38.4118 14.782C39.6609 18.4571 39.6577 22.323 38.5108 26.0226C38.2029 27.0155 37.8947 27.8364 37.5861 28.4851C36.8039 30.1299 35.747 31.6904 34.4154 33.1667C34.4119 33.1705 34.4107 33.174 34.4117 33.1771C34.4124 33.1792 34.4137 33.1808 34.4154 33.1818C34.4196 33.1843 34.4245 33.183 34.4302 33.1782C34.9352 32.7031 35.4676 32.1988 35.8462 31.6154C36.2253 31.0299 36.6029 30.4532 36.9478 29.8416C37.4267 28.9925 37.7358 28.4354 37.8752 28.1705C38.633 26.7306 39.258 24.9605 39.5514 23.3299C39.5672 23.2421 39.5643 23.1527 39.5429 23.0617C39.465 22.7319 39.3634 22.3964 39.3781 22.0531C39.3971 21.5947 39.4141 21.1361 39.4292 20.6774C39.4713 19.4091 39.3742 18.1529 39.138 16.9089C39.0011 16.1859 38.6825 15.4586 38.4297 14.7632C38.4255 14.7514 38.4202 14.7509 38.4139 14.7616C38.4104 14.7682 38.4097 14.775 38.4118 14.782Z" fill="#0BC1DF"/>
<path d="M23.1752 18.2846C23.3455 17.9611 24.0168 17.3093 24.0168 16.0758C24.0168 13.562 21.6705 13.0894 21.5457 13.0011C21.5371 12.9097 21.5148 12.6747 21.508 12.603C21.3243 10.6754 19.7239 9.2218 17.7859 9.2218C15.8686 9.2218 14.2732 10.6761 14.0748 12.6044L14.034 12.9999C13.9094 13.0876 11.5135 13.5522 11.5135 16.0758C11.5135 17.3078 12.1852 17.962 12.355 18.2846C12.2355 18.41 10.2673 19.4117 10.2673 21.7251C10.2673 23.7866 11.9858 25.4221 14.0474 25.4221H21.5244C23.586 25.4221 25.263 23.7451 25.263 21.6835C25.263 19.3565 23.3173 18.4336 23.1752 18.2846Z" fill="white"/>
<path d="M29.4476 18.2846C29.618 17.9611 30.2892 17.3093 30.2892 16.0758C30.2892 13.562 27.9014 13.0894 27.7766 13.0011C27.7679 12.9097 27.7457 12.6747 27.7389 12.603C27.5551 10.6754 25.9548 9.2218 24.0168 9.2218C23.1754 9.2218 22.4053 9.51386 21.7787 9.99123C22.2363 10.608 22.5682 11.3276 22.7019 12.1279C24.9173 13.18 25.263 15.0158 25.263 16.0758C25.263 16.8753 25.0555 17.5087 24.823 17.9822C25.9548 19.0044 26.5091 20.2372 26.5091 21.6835C26.5091 23.1794 25.8332 24.5077 24.7864 25.4221H27.7553C29.8168 25.4221 31.5354 23.7451 31.5354 21.6835C31.5354 19.3565 29.5897 18.4336 29.4476 18.2846Z" fill="white"/>
<path d="M26.5091 29.2437V26.6682H24.0168V29.2437H19.0321V26.6682H16.5397V29.2437H14.0474V30.4898H29.0015V29.2437H26.5091Z" fill="white"/>
</svg>
