<svg width="42" height="40" viewBox="0 0 42 40" fill="none" xmlns="http://www.w3.org/2000/svg">
<path d="M10.4747 36.4125C10.4721 36.4109 10.469 36.4104 10.4661 36.411C10.4631 36.4116 10.4605 36.4133 10.4587 36.4157C10.4569 36.4181 10.4561 36.4211 10.4565 36.424C10.4568 36.427 10.4582 36.4298 10.4605 36.4317C11.4119 37.358 12.4603 38.1611 13.6059 38.841C13.9447 39.0421 14.2859 39.2396 14.6296 39.4333C14.6468 39.4427 14.6471 39.4528 14.6306 39.4636C13.9898 39.8751 13.1498 39.5558 12.4716 39.2609C12.1251 39.1102 11.5023 38.7839 10.6032 38.2821C5.72055 35.5587 2.14335 30.8546 0.91847 25.4906C0.526151 23.7731 0.357112 21.9472 0.367118 20.0244C0.368171 19.7976 0.392921 19.6169 0.441369 19.4821C0.537912 19.2116 0.699754 18.9841 0.926895 18.7997C0.931147 18.7961 0.936383 18.7939 0.941928 18.7933C0.947472 18.7927 0.953071 18.7938 0.958001 18.7964C0.962932 18.7989 0.966968 18.8029 0.96959 18.8078C0.972211 18.8126 0.973298 18.8182 0.972709 18.8237C0.911273 19.5037 0.88073 20.1677 0.881081 20.8157C0.881432 21.0838 0.913379 21.346 0.976922 21.6023C0.977709 21.6056 0.979681 21.6084 0.982465 21.6103C0.985249 21.6121 0.988651 21.6129 0.992027 21.6124C0.995402 21.6118 0.998517 21.6101 1.00078 21.6075C1.00304 21.6049 1.0043 21.6016 1.00431 21.5982C0.954103 20.4973 0.996055 19.4003 1.13016 18.3074C1.13023 18.3051 1.13124 18.3029 1.13297 18.3012C1.1347 18.2996 1.137 18.2988 1.13938 18.2988C1.14175 18.2989 1.144 18.2999 1.14563 18.3016C1.14726 18.3033 1.14814 18.3056 1.14807 18.3079C1.17615 18.8383 1.2167 19.3703 1.26971 19.9041C1.29148 20.1204 1.32185 20.3012 1.36081 20.4464C1.36198 20.4504 1.36449 20.454 1.36795 20.4565C1.3714 20.4589 1.37561 20.4602 1.37987 20.46C1.38414 20.4598 1.38821 20.4582 1.39145 20.4555C1.39468 20.4527 1.39687 20.449 1.39768 20.4448C1.75717 18.5372 2.11087 16.6293 2.45878 14.7213C2.51723 14.4004 2.72155 13.917 2.88217 13.5482C3.99856 10.992 5.45461 8.44876 7.42305 6.43432C10.0139 3.78382 13.2346 1.97617 16.7939 0.891589C17.0232 0.821784 17.2178 0.788097 17.3779 0.790528C17.6897 0.79539 17.9883 0.868147 18.2737 1.0088C18.2923 1.01783 18.2916 1.0253 18.2716 1.0312C17.5937 1.22776 16.9161 1.42468 16.2389 1.62194C16.0676 1.67195 15.9131 1.74418 15.7755 1.83865C15.771 1.84092 15.7676 1.84487 15.7661 1.84961C15.7646 1.85434 15.765 1.85949 15.7673 1.86391C15.7696 1.86833 15.7736 1.87167 15.7784 1.87318C15.7832 1.87469 15.7884 1.87426 15.7929 1.87198C16.7118 1.54901 17.6681 1.28281 18.6191 1.1208C18.6219 1.12036 18.6248 1.12095 18.6272 1.12245C18.6296 1.12396 18.6313 1.12628 18.6321 1.12897C18.6329 1.13166 18.6326 1.13454 18.6314 1.13707C18.6302 1.1396 18.6281 1.14159 18.6254 1.14268C18.0079 1.3764 17.4013 1.63496 16.8055 1.91835C16.8031 1.91957 16.8011 1.92147 16.7998 1.92383C16.7984 1.92618 16.7978 1.92887 16.7981 1.93155C16.7983 1.93424 16.7993 1.93679 16.801 1.93889C16.8027 1.941 16.805 1.94255 16.8076 1.94335C16.8424 1.95377 16.8812 1.95655 16.924 1.95169C18.7836 1.72908 20.643 1.50629 22.5023 1.28333C22.7558 1.25312 22.9966 1.24287 23.2248 1.2526C24.624 1.31407 26.04 1.51046 27.3828 1.91105C28.7692 2.32433 30.1554 2.73847 31.5414 3.15348C31.6432 3.18404 31.7403 3.22554 31.8326 3.27798C32.4298 3.61694 33.044 3.996 33.6752 4.41518C34.3097 4.83661 34.9885 5.30806 35.462 5.89098C36.3042 6.92903 37.1459 7.96725 37.987 9.00564C38.1836 9.2484 38.5234 9.76221 39.0065 10.5471C39.8322 11.8876 40.4715 13.3092 40.9244 14.812C41.0302 15.1631 41.0023 15.4793 40.9423 15.8278C40.8928 16.1127 41.0376 16.5529 41.0934 16.8436C42.094 22.0415 40.8828 27.4779 37.7216 31.7126C35.9749 34.0531 33.6905 35.9019 31.0759 37.2225C29.8068 37.8633 28.6221 38.3495 27.5219 38.6811C26.2559 39.0624 24.8304 39.2286 23.2143 39.4177C22.8727 39.4577 22.5228 39.4825 22.1647 39.4922C21.378 39.5141 20.5523 39.5693 19.795 39.5209C18.508 39.4379 17.2426 39.2281 15.9988 38.8916C15.1362 38.6577 14.271 38.2956 13.4279 37.9633C12.4969 37.5965 11.6259 37.0933 10.7844 36.5651C10.6896 36.5052 10.5758 36.4614 10.4747 36.4125ZM33.2755 5.41329C33.2733 5.41077 33.2721 5.40756 33.272 5.40423C33.272 5.4009 33.2732 5.39767 33.2753 5.39511C33.2775 5.39255 33.2805 5.39082 33.2838 5.39024C33.2871 5.38966 33.2905 5.39026 33.2934 5.39193C35.4762 6.90055 37.2413 8.88896 38.6073 11.1503C38.614 11.1611 38.6223 11.1623 38.6321 11.154C38.6395 11.1477 38.64 11.139 38.6337 11.1279C37.9789 10.0381 37.2111 8.99991 36.3303 8.01327C35.245 6.79793 34.0228 5.79878 32.6589 4.89965C32.6582 4.89893 32.6578 4.89803 32.6576 4.89707C32.6575 4.8961 32.6577 4.89512 32.6581 4.89426C32.6586 4.8934 32.6593 4.89271 32.6602 4.89227C32.6611 4.89184 32.6621 4.89168 32.6631 4.89183C32.7666 4.93038 32.8498 4.97067 32.9127 5.01269C35.502 6.7401 37.6147 9.12598 39.1755 11.7984C39.1762 11.7994 39.1771 11.8003 39.1782 11.801L39.1961 11.8067C39.207 11.8102 39.21 11.8067 39.205 11.7963C38.0349 9.25986 36.0928 7.173 33.8516 5.46434C32.4133 4.36795 30.8972 3.51796 29.3033 2.91437C29.1429 2.85394 28.973 2.81071 28.7936 2.78466C26.7936 2.49572 24.7858 2.27224 22.7703 2.11422C22.6906 2.10797 22.6118 2.11161 22.5339 2.12516C22.4897 2.13315 22.49 2.13783 22.5349 2.13922C24.1748 2.19965 25.7535 2.70392 27.3165 3.15036C30.171 3.96614 32.681 5.37683 34.8464 7.38242C34.8483 7.38387 34.8506 7.38463 34.853 7.38459C34.8554 7.38455 34.8577 7.38369 34.8595 7.38218C34.8614 7.38066 34.8626 7.37856 34.8631 7.37624C34.8636 7.37392 34.8633 7.3715 34.8622 7.36939C34.3966 6.66752 33.8678 6.01549 33.2755 5.41329ZM38.7785 15.1511C40.0276 18.8263 40.0244 22.6921 38.8775 26.3918C38.5696 27.3847 38.2614 28.2055 37.9528 28.8542C37.1706 30.499 36.1137 32.0595 34.7821 33.5359C34.7786 33.5397 34.7774 33.5432 34.7784 33.5463C34.7791 33.5484 34.7804 33.5499 34.7821 33.551C34.7863 33.5534 34.7912 33.5522 34.7969 33.5473C35.3019 33.0722 35.8343 32.568 36.2129 31.9845C36.592 31.399 36.9696 30.8223 37.3145 30.2107C37.7934 29.3616 38.1025 28.8046 38.2419 28.5396C38.9997 27.0997 39.6247 25.3296 39.9181 23.6991C39.9339 23.6112 39.931 23.5218 39.9096 23.4308C39.8317 23.1011 39.7301 22.7656 39.7448 22.4223C39.7638 21.9639 39.7808 21.5053 39.7959 21.0465C39.838 19.7782 39.7409 18.522 39.5047 17.2781C39.3678 16.555 39.0492 15.8278 38.7964 15.1323C38.7922 15.1205 38.7869 15.12 38.7806 15.1308C38.7771 15.1374 38.7764 15.1441 38.7785 15.1511Z" fill="#0BC1DF"/>
<path d="M18.0592 17.7931V19.1332C18.0592 19.1332 25.5391 19.1325 25.9388 19.1332V17.7931C25.939 17.676 25.9799 17.5628 26.0542 17.4734C27.0852 16.3398 28.4509 13.2524 26.4883 11.1822L26.4884 8.53504C26.4803 8.22878 26.355 7.93783 26.1394 7.72413C25.9237 7.51044 25.6346 7.39086 25.3337 7.39087C25.0327 7.39087 24.7436 7.51045 24.528 7.72416C24.3123 7.93786 24.1871 8.22881 24.179 8.53507V10.0726C23.4846 10.0496 22.8003 10.2467 22.2207 10.6368C22.1539 10.6783 22.0772 10.7003 21.999 10.7003C21.9207 10.7003 21.844 10.6783 21.7773 10.6368C21.1977 10.2467 20.5134 10.0496 19.8189 10.0726V8.53504C19.8107 8.22884 19.6854 7.93798 19.4698 7.72435C19.2541 7.51073 18.9651 7.3912 18.6642 7.39121C18.3633 7.39121 18.0743 7.51075 17.8586 7.72438C17.643 7.93801 17.5177 8.22887 17.5095 8.53507V11.1822C15.5462 13.2712 16.9088 16.3271 17.9438 17.4734C18.018 17.5628 18.0589 17.676 18.0592 17.7931Z" fill="white"/>
<path d="M31.6845 28.8943L26.3083 20.0736H24.2945L27.6246 31.1889C27.6779 31.3678 27.6911 31.5565 27.6631 31.7413C27.6351 31.926 27.5667 32.102 27.4629 32.2562C28.7904 31.901 30.0806 31.4144 31.315 30.8033C31.6062 30.5948 31.8072 30.2799 31.876 29.9243C31.9448 29.5687 31.8762 29.1997 31.6845 28.8943Z" fill="white"/>
<path d="M16.3733 31.2359C16.3828 31.1754 16.3967 31.1157 16.4149 31.0572L19.7034 20.0736C19.2089 20.0716 18.1879 20.075 17.6897 20.0736L12.3135 28.8943C12.173 29.1225 12.0993 29.3868 12.101 29.6561C12.0975 29.8813 12.1488 30.104 12.2504 30.3041C12.3519 30.5043 12.5005 30.6758 12.683 30.8033C13.9398 31.4228 15.2532 31.9157 16.6043 32.275C16.3959 31.9731 16.3129 31.5997 16.3733 31.2359Z" fill="white"/>
<path d="M23.3338 20.0736H20.6641L17.2971 31.3299C17.2653 31.4368 17.2704 31.5516 17.3116 31.6551C17.3527 31.7586 17.4275 31.8446 17.5234 31.8989C18.917 32.672 20.4809 33.0712 22.068 33.0589C23.655 33.0466 25.2128 32.6231 26.5946 31.8283C26.6575 31.7945 26.7068 31.7392 26.7338 31.6722C26.7608 31.6052 26.7638 31.5307 26.7424 31.4616L23.3338 20.0736Z" fill="white"/>
</svg>
