<svg width="42" height="41" viewBox="0 0 42 41" fill="none" xmlns="http://www.w3.org/2000/svg">
<path d="M10.108 36.8159C10.1054 36.8143 10.1023 36.8138 10.0994 36.8144C10.0964 36.815 10.0938 36.8167 10.092 36.8192C10.0902 36.8216 10.0894 36.8247 10.0898 36.8277C10.0901 36.8307 10.0915 36.8335 10.0938 36.8355C11.0452 37.7792 12.0936 38.5975 13.2392 39.2903C13.578 39.4952 13.9192 39.6963 14.2629 39.8938C14.2801 39.9033 14.2804 39.9136 14.2639 39.9246C13.6231 40.3439 12.7831 40.0185 12.1049 39.7181C11.7584 39.5645 11.1356 39.2321 10.2365 38.7208C5.35385 35.946 1.77665 31.1532 0.55177 25.6879C0.159452 23.938 -0.00958705 22.0777 0.000418385 20.1187C0.00147159 19.8876 0.026222 19.7034 0.0746694 19.5661C0.171213 19.2905 0.333055 19.0587 0.560196 18.8708C0.564448 18.8672 0.569684 18.8649 0.575229 18.8643C0.580773 18.8637 0.586371 18.8648 0.591302 18.8674C0.596233 18.87 0.600269 18.8741 0.60289 18.8791C0.605512 18.884 0.606599 18.8897 0.60601 18.8952C0.544573 19.5881 0.514031 20.2646 0.514382 20.9249C0.514733 21.198 0.54668 21.4652 0.610223 21.7263C0.61101 21.7297 0.612982 21.7326 0.615766 21.7344C0.61855 21.7363 0.621952 21.7371 0.625327 21.7365C0.628703 21.736 0.631818 21.7343 0.634081 21.7316C0.636344 21.7289 0.637598 21.7255 0.637606 21.7221C0.587404 20.6004 0.629356 19.4828 0.763464 18.3693C0.763534 18.3669 0.764544 18.3646 0.766272 18.363C0.768001 18.3613 0.770305 18.3604 0.77268 18.3605C0.775054 18.3606 0.777303 18.3616 0.778933 18.3633C0.780562 18.3651 0.781438 18.3674 0.781369 18.3698C0.809454 18.9101 0.850002 19.4522 0.903013 19.996C0.92478 20.2165 0.955147 20.4007 0.994116 20.5486C0.995276 20.5527 0.997788 20.5563 1.00125 20.5589C1.0047 20.5614 1.00891 20.5627 1.01317 20.5625C1.01744 20.5623 1.02151 20.5607 1.02475 20.5578C1.02798 20.555 1.03017 20.5512 1.03098 20.547C1.39047 18.6033 1.74417 16.6595 2.09208 14.7155C2.15053 14.3885 2.35485 13.896 2.51547 13.5202C3.63186 10.9158 5.08792 8.32458 7.05635 6.27213C9.64723 3.57162 12.8679 1.72987 16.4272 0.624821C16.6565 0.553699 16.8511 0.519377 17.0112 0.521854C17.323 0.526807 17.6216 0.600937 17.907 0.744243C17.9256 0.753443 17.9249 0.76105 17.9049 0.767066C17.227 0.967339 16.5494 1.16797 15.8722 1.36895C15.7009 1.4199 15.5464 1.4935 15.4088 1.58975C15.4043 1.59207 15.4009 1.59609 15.3994 1.60091C15.3979 1.60574 15.3983 1.61098 15.4006 1.61549C15.4029 1.61999 15.4069 1.62339 15.4117 1.62493C15.4165 1.62648 15.4217 1.62604 15.4262 1.62372C16.3451 1.29464 17.3014 1.02342 18.2524 0.858357C18.2552 0.857908 18.2581 0.858508 18.2605 0.860041C18.2629 0.861575 18.2646 0.863937 18.2654 0.866681C18.2662 0.869425 18.2659 0.872361 18.2647 0.874934C18.2635 0.877508 18.2614 0.87954 18.2587 0.880649C17.6412 1.11878 17.0346 1.38222 16.4388 1.67095C16.4364 1.67219 16.4344 1.67414 16.4331 1.67653C16.4317 1.67893 16.4311 1.68167 16.4314 1.68441C16.4316 1.68714 16.4326 1.68975 16.4343 1.69189C16.436 1.69403 16.4383 1.69561 16.4409 1.69643C16.4757 1.70705 16.5145 1.70988 16.5573 1.70492C18.4169 1.47811 20.2763 1.25112 22.1356 1.02395C22.3891 0.99317 22.6299 0.982732 22.8581 0.992639C24.2573 1.05527 25.6733 1.25537 27.0161 1.66352C28.4025 2.08459 29.7887 2.50655 31.1747 2.92939C31.2765 2.96053 31.3736 3.00281 31.4659 3.05624C32.0631 3.40159 32.6773 3.78781 33.3085 4.2149C33.9431 4.64428 34.6218 5.12462 35.0953 5.71854C35.9375 6.77617 36.7792 7.83399 37.6203 8.89197C37.8169 9.13931 38.1567 9.66282 38.6398 10.4625C39.4655 11.8283 40.1048 13.2768 40.5577 14.8078C40.6635 15.1656 40.6356 15.4878 40.5756 15.8428C40.5261 16.1332 40.6709 16.5817 40.7267 16.8778C41.7273 22.1737 40.5161 27.7128 37.3549 32.0274C35.6082 34.4121 33.3238 36.2957 30.7092 37.6412C29.4401 38.2941 28.2554 38.7894 27.1552 39.1274C25.8892 39.5159 24.4637 39.6852 22.8476 39.8779C22.506 39.9186 22.1561 39.9439 21.798 39.9538C21.0113 39.9761 20.1856 40.0323 19.4283 39.983C18.1413 39.8984 16.8759 39.6847 15.6321 39.3418C14.7695 39.1035 13.9043 38.7346 13.0612 38.396C12.1302 38.0223 11.2592 37.5096 10.4177 36.9714C10.3229 36.9104 10.2091 36.8658 10.108 36.8159ZM32.9088 5.23184C32.9066 5.22927 32.9054 5.226 32.9053 5.22261C32.9053 5.21922 32.9065 5.21592 32.9086 5.21331C32.9108 5.2107 32.9138 5.20894 32.9171 5.20835C32.9204 5.20776 32.9238 5.20837 32.9267 5.21007C35.1095 6.74716 36.8746 8.77308 38.2406 11.0771C38.2473 11.0881 38.2556 11.0893 38.2654 11.0808C38.2728 11.0745 38.2733 11.0656 38.267 11.0543C37.6122 9.94394 36.8444 8.88613 35.9636 7.88087C34.8783 6.6426 33.6561 5.6246 32.2922 4.7085C32.2915 4.70778 32.2911 4.70686 32.2909 4.70587C32.2908 4.70489 32.291 4.70389 32.2915 4.70301C32.2919 4.70214 32.2926 4.70143 32.2935 4.70099C32.2944 4.70055 32.2954 4.70039 32.2964 4.70054C32.3999 4.73982 32.4831 4.78087 32.546 4.82368C35.1353 6.58368 37.248 9.01458 38.8088 11.7374C38.8095 11.7384 38.8104 11.7393 38.8115 11.74L38.8294 11.7459C38.8403 11.7494 38.8433 11.7459 38.8383 11.7353C37.6682 9.15099 35.7261 7.02475 33.4849 5.28385C32.0466 4.16678 30.5305 3.30075 28.9366 2.68577C28.7762 2.6242 28.6063 2.58015 28.4269 2.55361C26.4269 2.25922 24.4191 2.03152 22.4036 1.87052C22.3239 1.86415 22.2451 1.86787 22.1672 1.88167C22.123 1.8898 22.1233 1.89458 22.1682 1.896C23.8081 1.95756 25.3868 2.47134 26.9498 2.92621C29.8043 3.75738 32.3143 5.19469 34.4797 7.23812C34.4816 7.23959 34.4839 7.24038 34.4863 7.24033C34.4887 7.24029 34.491 7.23942 34.4928 7.23787C34.4947 7.23633 34.4959 7.23419 34.4964 7.23182C34.4969 7.22946 34.4966 7.227 34.4955 7.22485C34.0299 6.50974 33.5011 5.8454 32.9088 5.23184ZM38.4118 15.1534C39.6609 18.8979 39.6577 22.8367 38.5108 26.6062C38.2029 27.6178 37.8947 28.4541 37.5861 29.1151C36.8039 30.7909 35.747 32.3808 34.4154 33.885C34.4119 33.8889 34.4107 33.8925 34.4117 33.8956C34.4124 33.8978 34.4137 33.8994 34.4154 33.9004C34.4196 33.9029 34.4245 33.9017 34.4302 33.8967C34.9352 33.4127 35.4676 32.8989 35.8462 32.3044C36.2253 31.7078 36.6029 31.1203 36.9478 30.4972C37.4267 29.632 37.7358 29.0645 37.8752 28.7945C38.633 27.3275 39.258 25.5239 39.5514 23.8626C39.5672 23.7731 39.5643 23.682 39.5429 23.5893C39.465 23.2533 39.3634 22.9115 39.3781 22.5617C39.3971 22.0947 39.4141 21.6274 39.4292 21.16C39.4713 19.8678 39.3742 18.5879 39.138 17.3205C39.0011 16.5838 38.6825 15.8428 38.4297 15.1343C38.4255 15.1222 38.4202 15.1217 38.4139 15.1327C38.4104 15.1394 38.4097 15.1463 38.4118 15.1534Z" fill="#0BC1DF"/>
<path d="M21.268 7.85547C18.8022 7.85547 16.3917 8.58667 14.3415 9.95661C12.2912 11.3266 10.6932 13.2737 9.74957 15.5518C8.80594 17.83 8.55904 20.3368 9.0401 22.7552C9.52116 25.1737 10.7086 27.3952 12.4522 29.1388C14.1958 30.8824 16.4173 32.0698 18.8357 32.5508C21.2542 33.0319 23.761 32.785 26.0391 31.8414C28.3172 30.8977 30.2644 29.2997 31.6343 27.2495C33.0043 25.1992 33.7355 22.7888 33.7355 20.3229C33.7355 17.0164 32.4219 13.8452 30.0838 11.5071C27.7457 9.169 24.5746 7.85547 21.268 7.85547ZM10.6476 20.3229C10.648 18.3154 11.2175 16.3492 12.2898 14.6522C13.3622 12.9551 14.8936 11.5967 16.7065 10.7345C18.5194 9.87228 20.5395 9.54153 22.5327 9.78058C24.5259 10.0196 26.4105 10.8187 27.9681 12.0852L22.0992 17.9541L22.0391 17.4924C22.1108 17.4849 22.177 17.4502 22.2238 17.3954L24.1632 15.1789C24.1955 15.1421 24.2177 15.0976 24.2279 15.0497L24.8235 12.3761C24.8323 12.3381 24.8334 12.2988 24.8267 12.2605C24.8201 12.2221 24.8057 12.1855 24.7846 12.1527C24.7635 12.12 24.7361 12.0919 24.7039 12.0699C24.6717 12.048 24.6355 12.0328 24.5973 12.0251C24.5208 12.0084 24.4408 12.0223 24.3744 12.0637C24.308 12.1051 24.2604 12.1708 24.2417 12.2468L23.6645 14.8465L22.0715 16.6704C22.1303 16.5092 22.16 16.3388 22.1592 16.1671C22.1729 15.9418 22.123 15.7171 22.0153 15.5187C21.9075 15.3203 21.7462 15.1562 21.5497 15.045C21.5544 15.0238 21.5544 15.0017 21.5497 14.9804V13.2904L22.1084 12.473C22.1519 12.4075 22.1675 12.3274 22.152 12.2504C22.1364 12.1733 22.0908 12.1056 22.0253 12.0621C21.9598 12.0186 21.8797 12.0029 21.8026 12.0185C21.7255 12.0341 21.6578 12.0797 21.6143 12.1452L21.268 12.6624L20.9217 12.1452C20.9002 12.1128 20.8725 12.0849 20.8401 12.0631C20.8078 12.0414 20.7716 12.0262 20.7334 12.0185C20.6953 12.0108 20.6559 12.0107 20.6177 12.0182C20.5795 12.0256 20.5432 12.0406 20.5107 12.0621C20.4783 12.0836 20.4504 12.1113 20.4287 12.1436C20.4069 12.1759 20.3918 12.2122 20.384 12.2504C20.3763 12.2885 20.3762 12.3278 20.3837 12.366C20.3912 12.4042 20.4061 12.4406 20.4276 12.473L20.9725 13.2904V14.9804C20.9699 15.0019 20.9699 15.0236 20.9725 15.045C20.7786 15.158 20.62 15.323 20.5148 15.5212C20.4096 15.7195 20.3618 15.9432 20.3768 16.1671C20.3766 16.3372 20.4063 16.506 20.4645 16.6658L18.8715 14.8419L18.2943 12.2422C18.2856 12.2042 18.2695 12.1684 18.2469 12.1367C18.2243 12.105 18.1956 12.078 18.1626 12.0574C18.1295 12.0369 18.0927 12.023 18.0543 12.0167C18.0159 12.0103 17.9766 12.0116 17.9387 12.0205C17.9005 12.0282 17.8643 12.0434 17.8321 12.0653C17.7999 12.0872 17.7725 12.1154 17.7514 12.1481C17.7303 12.1809 17.716 12.2175 17.7093 12.2559C17.7026 12.2942 17.7037 12.3335 17.7125 12.3715L18.3081 15.045C18.3183 15.093 18.3405 15.1375 18.3728 15.1743L20.3122 17.3908C20.3591 17.4455 20.4252 17.4802 20.4969 17.4877L20.4091 18.1527L17.8741 17.7463C17.0584 17.6217 16.2286 17.6217 15.4129 17.7463L13.8799 17.9818C13.7452 17.9938 13.6166 18.0435 13.5088 18.1251C13.401 18.2068 13.3184 18.3172 13.2704 18.4436C13.2476 18.5316 13.2494 18.6241 13.2754 18.7112C13.3015 18.7983 13.3508 18.8766 13.4181 18.9377C14.0065 19.4646 14.7258 19.8235 15.5006 19.9766C15.6779 20.0068 15.859 20.0068 16.0363 19.9766L17.9941 19.7273C18.2359 19.6949 18.4751 19.6456 18.7099 19.5795L20.2521 19.2009L20.1783 19.8612L20.1459 19.8935C20.0817 19.8878 20.0176 19.9059 19.9658 19.9443L18.1188 21.2557C18.0628 21.2946 18.0221 21.3517 18.0034 21.4173L17.7771 22.2531L13.021 27.0092C11.4845 25.1197 10.6462 22.7583 10.6476 20.3229ZM21.268 30.9434C18.7219 30.9416 16.2621 30.02 14.3416 28.3483L18.6406 24.0447L19.1993 27.3786L18.6452 28.1728C18.6236 28.2052 18.6085 28.2416 18.601 28.2798C18.5935 28.318 18.5935 28.3574 18.6013 28.3956C18.609 28.4338 18.6242 28.4701 18.646 28.5024C18.6678 28.5347 18.6958 28.5623 18.7283 28.5838C18.7776 28.6165 18.8354 28.6341 18.8946 28.6346C18.9433 28.6345 18.9913 28.6223 19.034 28.5989C19.0768 28.5755 19.113 28.5417 19.1393 28.5007L19.735 27.6095C19.7755 27.5466 19.792 27.4711 19.7811 27.3971L19.2039 23.9523L20.1875 22.4793L20.3353 22.327L20.9263 26.2611C20.9397 26.3421 20.9813 26.4157 21.0439 26.4688C21.1065 26.5219 21.1859 26.5511 21.268 26.5511C21.3501 26.5511 21.4295 26.5219 21.4921 26.4688C21.5547 26.4157 21.5963 26.3421 21.6097 26.2611L22.1915 22.2669L23.3136 23.9523L22.7364 27.3971C22.7256 27.4711 22.742 27.5466 22.7826 27.6095L23.3782 28.5007C23.4045 28.5417 23.4407 28.5755 23.4835 28.5989C23.5263 28.6223 23.5742 28.6345 23.623 28.6346C23.6821 28.6341 23.7399 28.6165 23.7892 28.5838C23.8217 28.5623 23.8497 28.5347 23.8715 28.5024C23.8933 28.4701 23.9085 28.4338 23.9163 28.3956C23.924 28.3574 23.9241 28.318 23.9165 28.2798C23.909 28.2416 23.894 28.2052 23.8723 28.1728L23.3413 27.3786L23.9185 23.9339C23.9293 23.8598 23.9129 23.7844 23.8723 23.7215L22.487 21.6666C22.4651 21.6316 22.4353 21.6021 22.4001 21.5805C22.3648 21.5588 22.3251 21.5457 22.2839 21.542L22.4224 20.6185L23.9785 21.7082L24.842 24.8712C24.8545 24.9216 24.8799 24.9678 24.9159 25.0052L27.2939 27.3786C27.321 27.4062 27.3534 27.4282 27.389 27.4432C27.4247 27.4582 27.463 27.4659 27.5017 27.4659C27.5404 27.4659 27.5787 27.4582 27.6144 27.4432C27.6501 27.4282 27.6824 27.4062 27.7095 27.3786C27.7379 27.3514 27.7604 27.3188 27.7759 27.2827C27.7913 27.2466 27.7992 27.2078 27.7992 27.1685C27.7992 27.1292 27.7913 27.0904 27.7759 27.0543C27.7604 27.0182 27.7379 26.9855 27.7095 26.9584L25.4007 24.6496L24.5234 21.4311C24.5047 21.3656 24.4639 21.3085 24.408 21.2695L22.6533 20.0136L23.1982 19.4687L23.8123 19.6164C24.0485 19.683 24.2893 19.7324 24.5326 19.7642L26.4859 20.0136C26.6631 20.0437 26.8442 20.0437 27.0215 20.0136C27.8051 19.8522 28.5299 19.4802 29.1179 18.9377C29.1927 18.8749 29.2475 18.7916 29.2754 18.698C29.3033 18.6044 29.3031 18.5047 29.2749 18.4113C29.2269 18.2848 29.1442 18.1745 29.0365 18.0928C28.9287 18.0112 28.8001 17.9615 28.6654 17.9495L27.1369 17.714C26.4184 17.6048 25.6885 17.5923 24.9667 17.6771L29.2934 13.3966C30.6177 14.9359 31.4729 16.8226 31.7578 18.8331C32.0426 20.8436 31.7451 22.8937 30.9005 24.7403C30.056 26.5869 28.6997 28.1527 26.9925 29.2521C25.2852 30.3515 23.2986 30.9385 21.268 30.9434Z" fill="white"/>
</svg>
