<svg width="46" height="44" viewBox="0 0 46 44" fill="none" xmlns="http://www.w3.org/2000/svg">
<path d="M11.1379 40.3402C11.135 40.3385 11.1316 40.3379 11.1284 40.3386C11.1251 40.3393 11.1222 40.3411 11.1203 40.3438C11.1183 40.3465 11.1174 40.3498 11.1178 40.3531C11.1181 40.3565 11.1197 40.3595 11.1222 40.3617C12.1705 41.3957 13.3258 42.2923 14.5881 43.0514C14.9614 43.2759 15.3374 43.4963 15.7161 43.7126C15.7351 43.7231 15.7354 43.7343 15.7173 43.7463C15.0111 44.2058 14.0856 43.8493 13.3382 43.5201C12.9564 43.3519 12.2702 42.9876 11.2795 42.4274C5.89934 39.3871 1.95766 34.1357 0.607989 28.1475C0.175698 26.2301 -0.0105638 24.1918 0.000461014 22.0453C0.00162152 21.7921 0.0288937 21.5903 0.0822773 21.4399C0.188657 21.1379 0.366989 20.8839 0.617272 20.6781C0.621958 20.6741 0.627728 20.6716 0.633837 20.6709C0.639946 20.6703 0.646115 20.6714 0.651548 20.6743C0.656981 20.6772 0.661429 20.6816 0.664317 20.6871C0.667206 20.6925 0.668403 20.6987 0.667755 20.7048C0.600058 21.4639 0.566404 22.2052 0.566791 22.9287C0.567177 23.228 0.602379 23.5207 0.672397 23.8068C0.673264 23.8105 0.675437 23.8136 0.678504 23.8157C0.681572 23.8177 0.685321 23.8186 0.68904 23.818C0.69276 23.8174 0.696192 23.8155 0.698685 23.8126C0.701179 23.8096 0.702561 23.8059 0.70257 23.8021C0.647252 22.5731 0.693479 21.3486 0.841251 20.1285C0.841328 20.1259 0.842441 20.1234 0.844346 20.1216C0.84625 20.1198 0.84879 20.1188 0.851406 20.1189C0.854022 20.119 0.8565 20.1201 0.858296 20.122C0.860091 20.1239 0.861057 20.1265 0.86098 20.1291C0.891927 20.7211 0.936606 21.3151 0.995019 21.911C1.019 22.1525 1.05246 22.3543 1.0954 22.5163C1.09668 22.5209 1.09945 22.5249 1.10326 22.5276C1.10707 22.5304 1.1117 22.5318 1.1164 22.5316C1.1211 22.5314 1.12559 22.5296 1.12915 22.5265C1.13272 22.5234 1.13513 22.5192 1.13602 22.5146C1.53214 20.385 1.92188 18.2551 2.30524 16.1251C2.36964 15.7669 2.59478 15.2272 2.77176 14.8155C4.0019 11.9618 5.60631 9.12271 7.7753 6.87387C10.6302 3.91496 14.179 1.89698 18.101 0.686199C18.3536 0.608272 18.5681 0.570665 18.7445 0.573379C19.088 0.578807 19.417 0.66003 19.7315 0.817048C19.752 0.827128 19.7512 0.835463 19.7291 0.842054C18.9822 1.06149 18.2356 1.28132 17.4894 1.50153C17.3006 1.55736 17.1304 1.638 16.9787 1.74345C16.9738 1.746 16.9701 1.7504 16.9684 1.75569C16.9667 1.76098 16.9672 1.76672 16.9697 1.77166C16.9723 1.77659 16.9767 1.78032 16.982 1.78201C16.9872 1.7837 16.993 1.78322 16.9979 1.78067C18.0104 1.42011 19.0642 1.12294 20.1121 0.942081C20.1152 0.941589 20.1184 0.942246 20.121 0.943926C20.1236 0.945607 20.1255 0.948195 20.1264 0.951201C20.1273 0.954207 20.127 0.957424 20.1256 0.960244C20.1243 0.963064 20.122 0.965291 20.1191 0.966505C19.4386 1.22743 18.7702 1.51607 18.1137 1.83243C18.111 1.83379 18.1088 1.83592 18.1074 1.83855C18.1059 1.84117 18.1053 1.84417 18.1055 1.84717C18.1058 1.85017 18.1069 1.85302 18.1088 1.85537C18.1106 1.85771 18.1132 1.85945 18.116 1.86034C18.1543 1.87198 18.1971 1.87508 18.2443 1.86965C20.2934 1.62113 22.3422 1.37243 24.3909 1.12352C24.6702 1.08979 24.9356 1.07836 25.187 1.08921C26.7288 1.15783 28.2891 1.37708 29.7687 1.82429C31.2963 2.28565 32.8238 2.74798 34.351 3.21128C34.4632 3.2454 34.5702 3.29173 34.6719 3.35027C35.3299 3.72866 36.0067 4.15184 36.7022 4.61979C37.4014 5.09026 38.1494 5.61656 38.671 6.26731C39.599 7.42614 40.5265 8.58517 41.4533 9.74439C41.67 10.0154 42.0444 10.589 42.5767 11.4652C43.4865 12.9617 44.191 14.5488 44.69 16.2263C44.8066 16.6183 44.7759 16.9713 44.7097 17.3603C44.6552 17.6784 44.8148 18.1699 44.8763 18.4944C45.9787 24.297 44.6442 30.3661 41.1609 35.0935C39.2362 37.7064 36.719 39.7703 33.8381 41.2445C32.4396 41.9598 31.1343 42.5026 29.9219 42.8728C28.527 43.2985 26.9562 43.4841 25.1754 43.6952C24.799 43.7397 24.4136 43.7675 24.019 43.7783C23.1521 43.8027 22.2422 43.8644 21.4078 43.8103C19.9897 43.7176 18.5953 43.4835 17.2248 43.1078C16.2743 42.8467 15.3209 42.4425 14.392 42.0715C13.3661 41.6621 12.4063 41.1003 11.4791 40.5106C11.3746 40.4437 11.2493 40.3949 11.1379 40.3402ZM36.2618 5.73404C36.2594 5.73123 36.258 5.72764 36.258 5.72393C36.2579 5.72021 36.2592 5.7166 36.2616 5.71374C36.2639 5.71088 36.2673 5.70895 36.2709 5.7083C36.2746 5.70765 36.2783 5.70832 36.2815 5.71019C38.6867 7.39435 40.6317 9.61413 42.1369 12.1386C42.1442 12.1506 42.1533 12.152 42.1641 12.1427C42.1723 12.1357 42.1729 12.126 42.1659 12.1136C41.4444 10.897 40.5984 9.73799 39.6278 8.63654C38.4319 7.27979 37.0852 6.16438 35.5823 5.16063C35.5816 5.15983 35.5811 5.15882 35.581 5.15775C35.5808 5.15667 35.581 5.15557 35.5815 5.15461C35.582 5.15366 35.5828 5.15288 35.5838 5.15239C35.5848 5.15191 35.5859 5.15174 35.5869 5.15191C35.7011 5.19494 35.7927 5.23991 35.862 5.28683C38.7151 7.21523 41.0431 9.87873 42.763 12.8621C42.7637 12.8632 42.7647 12.8642 42.7659 12.865L42.7856 12.8714C42.7976 12.8752 42.8009 12.8714 42.7955 12.8597C41.5061 10.0282 39.3662 7.6985 36.8966 5.79103C35.3117 4.56707 33.6412 3.61817 31.8849 2.94435C31.7081 2.87689 31.5209 2.82862 31.3232 2.79954C29.1194 2.47698 26.9071 2.22749 24.6863 2.05109C24.5985 2.04411 24.5116 2.04818 24.4257 2.0633C24.377 2.07222 24.3774 2.07746 24.4269 2.07901C26.2338 2.14647 27.9734 2.70941 29.6956 3.20779C32.841 4.11849 35.6067 5.69333 37.9927 7.93229C37.9948 7.93391 37.9974 7.93476 38 7.93471C38.0026 7.93466 38.0052 7.93371 38.0072 7.93202C38.0092 7.93032 38.0106 7.92799 38.0112 7.92539C38.0117 7.9228 38.0113 7.9201 38.0101 7.91775C37.4972 7.13421 36.9144 6.4063 36.2618 5.73404ZM42.3255 16.6049C43.7018 20.7077 43.6983 25.0234 42.4345 29.1536C42.0953 30.262 41.7556 31.1783 41.4156 31.9025C40.5537 33.7387 39.3892 35.4808 37.9219 37.1289C37.918 37.1332 37.9167 37.137 37.9178 37.1405C37.9186 37.1429 37.92 37.1446 37.9219 37.1458C37.9265 37.1485 37.932 37.1471 37.9381 37.1417C38.4946 36.6113 39.0812 36.0484 39.4985 35.397C39.9162 34.7434 40.3323 34.0996 40.7123 33.4169C41.24 32.469 41.5806 31.8471 41.7342 31.5513C42.5692 29.9439 43.2579 27.9678 43.5811 26.1475C43.5985 26.0494 43.5954 25.9496 43.5718 25.848C43.486 25.4799 43.374 25.1054 43.3902 24.7222C43.4111 24.2104 43.4299 23.6984 43.4465 23.1863C43.4929 21.7704 43.386 20.3681 43.1256 18.9794C42.9748 18.1722 42.6237 17.3603 42.3452 16.584C42.3405 16.5708 42.3347 16.5702 42.3278 16.5822C42.3239 16.5896 42.3231 16.5972 42.3255 16.6049Z" fill="#ED72C0"/>
<path d="M33.1949 12.3688L25.782 16.0752C21.6703 18.1323 19.2599 20.8294 18.6187 24.0997C17.7069 28.734 21.0797 33.9317 22.1534 34.3802C22.3034 34.4442 22.4647 34.4774 22.6278 34.4778C30.8833 34.4778 36.2181 30.1141 36.2181 23.3584C36.2181 15.0918 35.1062 13.0817 34.6206 12.6011C34.4374 12.4177 34.2011 12.2965 33.9453 12.2548C33.6894 12.2132 33.4269 12.253 33.1949 12.3688ZM23.8052 31.9636C23.7924 29.8221 24.4273 27.7268 25.6268 25.9527C26.8263 24.1787 28.5342 22.8088 30.5262 22.0229C30.6776 21.9605 30.8151 21.8687 30.9307 21.7527C31.0463 21.6367 31.1377 21.499 31.1995 21.3474C31.2614 21.1958 31.2925 21.0334 31.2911 20.8697C31.2896 20.706 31.2557 20.5442 31.1912 20.3937C31.1267 20.2432 31.0329 20.1071 30.9153 19.9931C30.7977 19.8792 30.6586 19.7898 30.5062 19.7301C30.3537 19.6704 30.1909 19.6416 30.0272 19.6454C29.8635 19.6491 29.7022 19.6854 29.5527 19.752C27.5451 20.5382 25.7685 21.8186 24.3877 23.4745C23.0069 25.1305 22.0667 27.1083 21.6542 29.2245C20.9959 27.763 20.7836 26.1397 21.0439 24.5581C21.5381 22.0871 23.5013 19.9794 26.8853 18.2868L33.0998 15.1795C33.6259 17.8723 33.8431 20.6164 33.7472 23.3584C33.7472 28.3782 29.9666 31.5991 23.8065 31.9636H23.8052Z" fill="white"/>
<path d="M18.3691 18.2929C18.6623 18.4394 19.0018 18.4634 19.3127 18.3596C19.6237 18.2558 19.8806 18.0327 20.0271 17.7394C20.1736 17.4462 20.1975 17.1067 20.0937 16.7958C19.9899 16.4849 19.7669 16.2279 19.4736 16.0814L12.0607 12.375C11.8287 12.2592 11.5662 12.2193 11.3103 12.261C11.0545 12.3027 10.8182 12.4238 10.635 12.6072C10.1494 13.0817 9.03747 15.0918 9.03747 23.3584C8.99644 25.5428 9.64774 27.6842 10.8981 29.4758C12.1484 31.2675 13.9337 32.6175 15.9982 33.3325C16.1497 33.3947 16.3121 33.4261 16.4758 33.4249C16.6396 33.4238 16.8015 33.3901 16.9521 33.3258C17.1027 33.2616 17.2391 33.168 17.3532 33.0505C17.4673 32.9331 17.557 32.7941 17.6169 32.6417C17.6769 32.4893 17.7059 32.3265 17.7024 32.1628C17.6988 31.9991 17.6628 31.8377 17.5963 31.688C17.5298 31.5383 17.4343 31.4034 17.3152 31.291C17.1961 31.1786 17.0558 31.091 16.9026 31.0333C15.3005 30.4996 13.912 29.4661 12.941 28.0846C11.97 26.7031 11.4679 25.0465 11.5084 23.3584C11.4121 20.6164 11.6289 17.8724 12.1546 15.1795L18.3691 18.2929Z" fill="white"/>
</svg>
