<svg width="46" height="44" viewBox="0 0 46 44" fill="none" xmlns="http://www.w3.org/2000/svg">
<path d="M11.1379 39.8109C11.135 39.8092 11.1316 39.8086 11.1284 39.8093C11.1251 39.81 11.1222 39.8118 11.1203 39.8145C11.1183 39.8172 11.1174 39.8205 11.1178 39.8239C11.1181 39.8272 11.1197 39.8302 11.1222 39.8324C12.1705 40.8664 13.3258 41.763 14.5881 42.5221C14.9614 42.7466 15.3374 42.967 15.7161 43.1833C15.7351 43.1938 15.7354 43.205 15.7173 43.217C15.0111 43.6765 14.0856 43.32 13.3382 42.9908C12.9564 42.8226 12.2702 42.4583 11.2795 41.8981C5.89934 38.8578 1.95766 33.6064 0.607989 27.6182C0.175698 25.7008 -0.0105638 23.6625 0.000461014 21.516C0.00162152 21.2628 0.0288937 21.061 0.0822773 20.9106C0.188657 20.6086 0.366989 20.3546 0.617272 20.1488C0.621958 20.1448 0.627728 20.1423 0.633837 20.1416C0.639946 20.141 0.646115 20.1421 0.651548 20.145C0.656981 20.1479 0.661429 20.1524 0.664317 20.1578C0.667206 20.1632 0.668403 20.1694 0.667755 20.1755C0.600058 20.9346 0.566404 21.6759 0.566791 22.3994C0.567177 22.6987 0.602379 22.9914 0.672397 23.2775C0.673264 23.2812 0.675437 23.2843 0.678504 23.2864C0.681572 23.2884 0.685321 23.2893 0.68904 23.2887C0.69276 23.2881 0.696192 23.2862 0.698685 23.2833C0.701179 23.2803 0.702561 23.2766 0.70257 23.2729C0.647252 22.0438 0.693479 20.8193 0.841251 19.5992C0.841328 19.5966 0.842441 19.5941 0.844346 19.5923C0.84625 19.5905 0.84879 19.5895 0.851406 19.5896C0.854022 19.5897 0.8565 19.5908 0.858296 19.5927C0.860091 19.5946 0.861057 19.5972 0.86098 19.5998C0.891927 20.1918 0.936606 20.7858 0.995019 21.3817C1.019 21.6232 1.05246 21.825 1.0954 21.987C1.09668 21.9916 1.09945 21.9956 1.10326 21.9983C1.10707 22.0011 1.1117 22.0025 1.1164 22.0023C1.1211 22.0021 1.12559 22.0003 1.12915 21.9972C1.13272 21.9941 1.13513 21.9899 1.13602 21.9853C1.53214 19.8557 1.92188 17.7258 2.30524 15.5958C2.36964 15.2376 2.59478 14.6979 2.77176 14.2862C4.0019 11.4325 5.60631 8.59341 7.7753 6.34457C10.6302 3.38566 14.179 1.36768 18.101 0.156903C18.3536 0.0789753 18.5681 0.0413684 18.7445 0.0440823C19.088 0.0495101 19.417 0.130733 19.7315 0.287751C19.752 0.297831 19.7512 0.306166 19.7291 0.312757C18.9822 0.532194 18.2356 0.752021 17.4894 0.972233C17.3006 1.02806 17.1304 1.1087 16.9787 1.21416C16.9738 1.2167 16.9701 1.2211 16.9684 1.22639C16.9667 1.23168 16.9672 1.23743 16.9697 1.24236C16.9723 1.2473 16.9767 1.25102 16.982 1.25271C16.9872 1.2544 16.993 1.25392 16.9979 1.25138C18.0104 0.890817 19.0642 0.593645 20.1121 0.412784C20.1152 0.412293 20.1184 0.412949 20.121 0.414629C20.1236 0.41631 20.1255 0.418898 20.1264 0.421904C20.1273 0.424911 20.127 0.428128 20.1256 0.430947C20.1243 0.433767 20.122 0.435994 20.1191 0.437209C19.4386 0.698129 18.7702 0.986772 18.1137 1.30313C18.111 1.30449 18.1088 1.30662 18.1074 1.30925C18.1059 1.31187 18.1053 1.31488 18.1055 1.31787C18.1058 1.32087 18.1069 1.32372 18.1088 1.32607C18.1106 1.32842 18.1132 1.33015 18.116 1.33105C18.1543 1.34268 18.1971 1.34578 18.2443 1.34035C20.2934 1.09184 22.3422 0.843129 24.3909 0.594227C24.6702 0.560497 24.9356 0.54906 25.187 0.559915C26.7288 0.628538 28.2891 0.847782 29.7687 1.29499C31.2963 1.75635 32.8238 2.21868 34.351 2.68198C34.4632 2.7161 34.5702 2.76243 34.6719 2.82097C35.3299 3.19937 36.0067 3.62254 36.7022 4.09049C37.4014 4.56096 38.1494 5.08727 38.671 5.73802C39.599 6.89685 40.5265 8.05588 41.4533 9.21509C41.67 9.48609 42.0444 10.0597 42.5767 10.9359C43.4865 12.4324 44.191 14.0195 44.69 15.697C44.8066 16.089 44.7759 16.442 44.7097 16.831C44.6552 17.1491 44.8148 17.6406 44.8763 17.9651C45.9787 23.7677 44.6442 29.8368 41.1609 34.5642C39.2362 37.1771 36.719 39.241 33.8381 40.7152C32.4396 41.4305 31.1343 41.9733 29.9219 42.3436C28.527 42.7692 26.9562 42.9548 25.1754 43.1659C24.799 43.2104 24.4136 43.2382 24.019 43.249C23.1521 43.2734 22.2422 43.3351 21.4078 43.281C19.9897 43.1883 18.5953 42.9542 17.2248 42.5785C16.2743 42.3174 15.3209 41.9132 14.392 41.5422C13.3661 41.1328 12.4063 40.571 11.4791 39.9813C11.3746 39.9144 11.2493 39.8656 11.1379 39.8109ZM36.2618 5.20474C36.2594 5.20193 36.258 5.19835 36.258 5.19463C36.2579 5.19091 36.2592 5.1873 36.2616 5.18444C36.2639 5.18158 36.2673 5.17966 36.2709 5.17901C36.2746 5.17836 36.2783 5.17903 36.2815 5.18089C38.6867 6.86505 40.6317 9.08483 42.1369 11.6093C42.1442 11.6213 42.1533 11.6227 42.1641 11.6134C42.1723 11.6064 42.1729 11.5967 42.1659 11.5843C41.4444 10.3677 40.5984 9.20869 39.6278 8.10724C38.4319 6.7505 37.0852 5.63508 35.5823 4.63133C35.5816 4.63053 35.5811 4.62953 35.581 4.62845C35.5808 4.62737 35.581 4.62628 35.5815 4.62532C35.582 4.62436 35.5828 4.62358 35.5838 4.6231C35.5848 4.62261 35.5859 4.62244 35.5869 4.62261C35.7011 4.66564 35.7927 4.71062 35.862 4.75753C38.7151 6.68594 41.0431 9.34944 42.763 12.3328C42.7637 12.3339 42.7647 12.3349 42.7659 12.3357L42.7856 12.3421C42.7976 12.346 42.8009 12.3421 42.7955 12.3304C41.5061 9.49889 39.3662 7.1692 36.8966 5.26173C35.3117 4.03777 33.6412 3.08887 31.8849 2.41505C31.7081 2.34759 31.5209 2.29933 31.3232 2.27025C29.1194 1.94768 26.9071 1.6982 24.6863 1.5218C24.5985 1.51482 24.5116 1.51889 24.4257 1.53401C24.377 1.54293 24.3774 1.54816 24.4269 1.54971C26.2338 1.61717 27.9734 2.18011 29.6956 2.67849C32.841 3.5892 35.6067 5.16404 37.9927 7.40299C37.9948 7.40461 37.9974 7.40546 38 7.40542C38.0026 7.40537 38.0052 7.40442 38.0072 7.40272C38.0092 7.40103 38.0106 7.39869 38.0112 7.39609C38.0117 7.3935 38.0113 7.3908 38.0101 7.38845C37.4972 6.60491 36.9144 5.87701 36.2618 5.20474ZM42.3255 16.0756C43.7018 20.1784 43.6983 24.4941 42.4345 28.6243C42.0953 29.7327 41.7556 30.649 41.4156 31.3732C40.5537 33.2094 39.3892 34.9515 37.9219 36.5996C37.918 36.6039 37.9167 36.6077 37.9178 36.6112C37.9186 36.6136 37.92 36.6153 37.9219 36.6165C37.9265 36.6192 37.932 36.6178 37.9381 36.6124C38.4946 36.082 39.0812 35.5191 39.4985 34.8678C39.9162 34.2141 40.3323 33.5703 40.7123 32.8876C41.24 31.9397 41.5806 31.3178 41.7342 31.022C42.5692 29.4146 43.2579 27.4385 43.5811 25.6182C43.5985 25.5201 43.5954 25.4203 43.5718 25.3187C43.486 24.9506 43.374 24.5761 43.3902 24.1929C43.4111 23.6811 43.4299 23.1691 43.4465 22.657C43.4929 21.2411 43.386 19.8388 43.1256 18.4501C42.9748 17.6429 42.6237 16.831 42.3452 16.0547C42.3405 16.0415 42.3347 16.0409 42.3278 16.0529C42.3239 16.0603 42.3231 16.0679 42.3255 16.0756Z" fill="#ED72C0"/>
<g clip-path="url(#clip0_1_336)">
<path d="M24.8174 8.23975H24.3872C16.9433 8.23975 10.8872 14.2959 10.8872 21.7397C10.8872 29.1836 16.9433 35.2397 24.3872 35.2397C31.8311 35.2397 37.8872 29.1836 37.8872 21.7397V21.3096L24.8174 8.23975ZM34.4053 20.7648C31.4359 20.6719 29.1919 19.8835 27.7176 18.4094C26.2435 16.9352 25.4551 14.6911 25.3622 11.7218L34.4053 20.7648ZM24.3872 33.1628C18.0885 33.1628 12.9642 28.0384 12.9642 21.7397C12.9642 15.8117 17.5035 10.9247 23.2885 10.37C23.1552 14.5818 24.1484 17.7773 26.249 19.878C28.2256 21.8545 31.1699 22.8513 35.0196 22.8512C35.2615 22.8512 35.508 22.8462 35.7571 22.8382C35.2024 28.6234 30.3153 33.1628 24.3872 33.1628Z" fill="white"/>
</g>
<defs>
<clipPath id="clip0_1_336">
<rect width="27" height="27" fill="white" transform="translate(10.8872 8.23975)"/>
</clipPath>
</defs>
</svg>
