<svg width="35" height="40" viewBox="0 0 35 40" fill="none" xmlns="http://www.w3.org/2000/svg">
<path d="M29.0469 7.02055H26.7454C26.1093 7.02055 25.5946 7.53523 25.5946 8.17136C25.5946 8.8074 26.1093 9.32217 26.7454 9.32217H29.0469C29.683 9.32217 30.1977 8.80748 30.1977 8.17136C30.1977 7.53523 29.683 7.02055 29.0469 7.02055Z" fill="#4A4A4A"/>
<path d="M17.4179 3.05351L16.2671 0.751968C15.9806 0.183301 15.2917 -0.0447937 14.723 0.237281C14.1543 0.521576 13.9239 1.21275 14.2083 1.78142L15.3591 4.08296C15.643 4.64933 16.3308 4.88202 16.9033 4.59765C17.4718 4.31335 17.7022 3.62218 17.4179 3.05351Z" fill="#4A4A4A"/>
<path d="M24.9585 0.237281C24.3921 -0.0447937 23.6988 0.183377 23.4144 0.751968L22.2636 3.05351C21.9793 3.62218 22.2097 4.31327 22.7783 4.59765C23.3525 4.88278 24.0393 4.64742 24.3224 4.08296L25.4732 1.78142C25.7575 1.21275 25.5271 0.521576 24.9585 0.237281Z" fill="#4A4A4A"/>
<path d="M12.9361 7.02055H10.6345C9.99848 7.02055 9.48371 7.53523 9.48371 8.17136C9.48371 8.8074 9.9984 9.32217 10.6345 9.32217H12.9361C13.5721 9.32217 14.0869 8.80748 14.0869 8.17136C14.0869 7.53523 13.5721 7.02055 12.9361 7.02055Z" fill="#4A4A4A"/>
<path d="M6.03144 18.6051H1.42828C0.792765 18.6051 0.277466 19.1203 0.277466 19.7559V38.1682C0.277466 38.8037 0.792688 39.319 1.42828 39.319H6.03136C6.66687 39.319 7.18217 38.8038 7.18217 38.1682V19.7558C7.18217 19.1203 6.66702 18.6051 6.03144 18.6051Z" fill="#4A4A4A"/>
<path d="M34.7779 21.6555C34.575 19.8703 32.9074 18.6051 31.1107 18.6051H22.1389C22.9014 17.2398 23.3107 13.3783 23.2925 11.8008C23.2624 9.18971 21.1001 7.09727 18.4889 7.09727H17.5393C16.9033 7.09727 16.3885 7.61196 16.3885 8.24808C16.3885 10.9092 15.3523 15.7124 13.3981 17.6667C12.0827 18.9821 10.9582 19.4587 9.48379 20.1956V37.4629C11.7412 38.2154 14.6075 39.3191 18.9762 39.3191H26.504C28.9844 39.3191 30.9162 37.0218 29.955 34.5946C31.4194 34.1957 32.4993 32.8527 32.4993 31.2637C32.4993 30.8152 32.4128 30.386 32.2566 29.9915C34.7243 29.3191 35.6326 26.2721 33.9198 24.359C34.5491 23.656 34.8961 22.6945 34.7779 21.6555Z" fill="#4A4A4A"/>
</svg>
