<svg width="30" height="45" viewBox="0 0 30 45" fill="none" xmlns="http://www.w3.org/2000/svg">
<path d="M9.9955 25.4273C9.9955 24.5171 9.25499 23.7766 8.34472 23.7766H1.37468C0.951699 24.8237 0.644091 25.9292 0.469333 27.0781H8.34472C9.25499 27.078 9.9955 26.3375 9.9955 25.4273Z" fill="#4A4A4A"/>
<path d="M26.3413 19.5804L22.3676 21.7478C21.795 22.0602 21.3993 22.5823 21.2534 23.218C21.1075 23.8538 21.2359 24.4961 21.615 25.0269C22.2023 25.849 22.4405 26.8515 22.286 27.85C22.1316 28.8483 21.6014 29.732 20.7932 30.3381C20.4823 30.5713 20.2966 30.9425 20.2966 31.331C20.2966 32.0154 20.8533 32.5721 21.5378 32.5721H29.6323C29.8672 31.525 29.992 30.437 29.992 29.3201C29.9921 25.5966 28.6139 22.1892 26.3413 19.5804Z" fill="#4A4A4A"/>
<path d="M9.32897 35.4402C6.89355 35.4402 4.82327 37.0279 4.09505 39.2221C6.54378 41.9522 9.98643 43.7724 13.848 44.1086C14.4742 43.2142 14.8432 42.1269 14.8432 40.9545C14.8432 37.9139 12.3695 35.4402 9.32897 35.4402Z" fill="#4A4A4A"/>
<path d="M17.7517 31.3309C17.7517 30.1455 18.3179 29.0132 19.2662 28.302C19.8266 27.8817 19.9512 27.076 19.5441 26.506C18.7473 25.3906 18.4663 23.9847 18.7728 22.6486C19.0795 21.3126 19.9455 20.1699 21.149 19.5135L24.415 17.7321C21.873 15.6947 18.6497 14.474 15.1461 14.474C9.94155 14.474 5.35458 17.1667 2.70318 21.2315H8.34472C10.6582 21.2315 12.5405 23.1137 12.5405 25.4272C12.5405 27.7407 10.6582 29.6229 8.34472 29.6229H0.304077C0.357353 32.2696 1.10678 34.7481 2.37623 36.8832C3.7776 34.4992 6.36936 32.8951 9.32905 32.8951C13.7729 32.8951 17.3883 36.5105 17.3883 40.9543C17.3883 42.0614 17.1638 43.1169 16.7581 44.0781C22.1897 43.4889 26.7517 39.9587 28.8132 35.1169H21.5379C19.4502 35.117 17.7517 33.4185 17.7517 31.3309Z" fill="#4A4A4A"/>
<path d="M13.0253 9.24181H13.8736V11.9771C14.2951 11.9465 14.7192 11.9291 15.1461 11.9291C15.5715 11.9291 15.9959 11.9459 16.4186 11.9774V9.24181H17.267C20.5415 9.24181 23.2053 6.57786 23.2053 3.30344V0.673584H21.0845C17.81 0.673584 15.1461 3.33754 15.1461 6.61196C15.1461 3.33754 12.4822 0.673584 9.20774 0.673584H7.08689V3.30344C7.08689 6.57786 9.75084 9.24181 13.0253 9.24181Z" fill="#4A4A4A"/>
</svg>
