<svg width="47" height="36" viewBox="0 0 47 36" fill="none" xmlns="http://www.w3.org/2000/svg">
<path d="M44.6137 13.9644C42.2227 13.7381 27.6667 13.2136 25.5761 13.9644C23.4847 14.7129 13.8717 22.5077 11.5131 24.2301C9.15338 25.9527 12.1983 29.1859 14.9754 27.3074C17.7509 25.4353 22.1553 22.646 24.0959 21.3846C26.0382 20.1246 28.2626 22.4349 26.575 24.0833C25.3251 25.3067 17.8509 30.7572 16.2639 30.8295C14.6773 30.9053 7.53975 30.8295 3.572 30.8295C-0.393893 30.8295 0.00280207 35.6292 3.572 35.6292C5.9519 35.6292 21.1228 36.4545 22.6089 35.6292C24.0959 34.8058 35.3028 26.1843 36.6793 25.8756C38.0587 25.5685 41.3495 25.8756 44.6135 25.8756C47.875 25.8759 47.0008 14.1885 44.6137 13.9644Z" fill="#4A4A4A"/>
<path d="M10.2214 18.4836C13.7465 18.4836 16.6042 15.6291 16.6042 12.1024C16.6042 8.57632 10.2214 0.786255 10.2214 0.786255C10.2214 0.786255 3.83974 8.57632 3.83974 12.1024C3.83974 15.6288 6.69717 18.4836 10.2214 18.4836Z" fill="#4A4A4A"/>
</svg>
