<svg width="39" height="39" viewBox="0 0 39 39" fill="none" xmlns="http://www.w3.org/2000/svg">
<path d="M33.3989 5.95589C29.8103 2.36725 25.0389 0.390869 19.9638 0.390869C14.8887 0.390869 10.1174 2.36725 6.52874 5.95589C2.94017 9.54453 0.963867 14.3158 0.963867 19.3909C0.963867 24.466 2.94017 29.2374 6.52881 32.826C10.1174 36.4146 14.8888 38.391 19.9638 38.391C25.0388 38.391 29.8102 36.4146 33.3989 32.826C36.9876 29.2374 38.9639 24.466 38.9639 19.3909C38.9639 14.3158 36.9876 9.54453 33.3989 5.95589ZM8.11858 15.8137C8.11858 13.2271 10.2228 11.1229 12.8092 11.1229C15.3955 11.1229 17.4997 13.2272 17.4997 15.8137C17.4997 16.4285 17.0013 16.9269 16.3864 16.9269C15.7716 16.9269 15.2731 16.4285 15.2731 15.8137C15.2731 14.4549 14.1678 13.3495 12.8092 13.3495C11.4505 13.3495 10.3452 14.4549 10.3452 15.8137C10.3452 16.4285 9.8467 16.9269 9.23187 16.9269C8.61704 16.9269 8.11858 16.4285 8.11858 15.8137ZM31.1338 23.3393C29.4643 28.0627 24.9755 31.2363 19.9638 31.2363C14.9521 31.2363 10.4632 28.0627 8.79375 23.3393C8.58883 22.7595 8.89269 22.1235 9.47241 21.9186C10.0521 21.7139 10.6882 22.0176 10.8931 22.5974C12.2487 26.4328 15.894 29.0097 19.9639 29.0097C24.0337 29.0097 27.6789 26.4328 29.0346 22.5973C29.2395 22.0176 29.8756 21.7142 30.4553 21.9186C31.035 22.1235 31.3388 22.7595 31.1338 23.3393ZM30.6958 16.9269C30.081 16.9269 29.5825 16.4285 29.5825 15.8137C29.5825 14.4549 28.4772 13.3495 27.1185 13.3495C25.7599 13.3495 24.6545 14.4549 24.6545 15.8137C24.6545 16.4285 24.1561 16.9269 23.5412 16.9269C22.9264 16.9269 22.4279 16.4285 22.4279 15.8137C22.4279 13.2271 24.5321 11.1229 27.1185 11.1229C29.705 11.1229 31.8091 13.2272 31.8091 15.8137C31.8091 16.4285 31.3106 16.9269 30.6958 16.9269Z" fill="#4A4A4A"/>
</svg>
