<svg width="51" height="29" viewBox="0 0 51 29" fill="none" xmlns="http://www.w3.org/2000/svg">
<path d="M50.2901 2.12411C44.9499 8.79674 49.7671 16.6307 39.8549 24.6392C38.1992 26.0622 36.1582 26.9614 33.9907 27.2228C31.8232 27.4842 29.6269 27.0961 27.6804 26.1076C27.5064 26.0072 27.3734 25.8486 27.305 25.6597C27.2365 25.4708 27.2369 25.2639 27.3062 25.0753C29.1119 20.4235 31.5854 16.0595 34.6489 12.1206C34.7774 11.9701 34.8435 11.7761 34.8334 11.5784C34.8233 11.3808 34.7379 11.1945 34.5948 11.0578C34.4516 10.9212 34.2616 10.8445 34.0637 10.8436C33.8657 10.8427 33.675 10.9177 33.5306 11.0531C29.1436 14.6986 25.9883 20.3123 24.8821 22.4646C24.8352 22.5571 24.7643 22.6353 24.6769 22.691C24.5894 22.7467 24.4886 22.7779 24.3849 22.7813C24.2813 22.7847 24.1786 22.7603 24.0877 22.7105C23.9967 22.6606 23.9208 22.5873 23.8679 22.4981C23.8202 22.4266 23.7784 22.3512 23.7432 22.2728C22.6856 20.4716 22.1448 18.4137 22.1802 16.3253V16.3167C22.2137 14.3905 22.6679 12.495 23.5111 10.7629C24.3542 9.03075 25.5658 7.50388 27.061 6.28923C35.6846 -0.643184 46.5611 0.491431 49.9787 1.07551C50.086 1.10196 50.1846 1.15603 50.2646 1.23236C50.3446 1.30868 50.4033 1.4046 50.4348 1.5106C50.4662 1.6166 50.4694 1.72899 50.4441 1.83661C50.4187 1.94423 50.3656 2.04334 50.2901 2.12411Z" fill="#4A4A4A"/>
<path d="M22.0925 22.3123C21.9948 22.9615 21.8044 23.5933 21.5273 24.1884C21.4858 24.2754 21.4235 24.3509 21.3459 24.4081C21.2684 24.4653 21.1779 24.5026 21.0826 24.5166C20.9872 24.5307 20.8898 24.521 20.7991 24.4885C20.7083 24.456 20.627 24.4017 20.5621 24.3304C18.2597 21.7462 15.5283 19.579 12.4882 17.9244C12.3324 17.8411 12.1515 17.818 11.9797 17.8594C11.808 17.9009 11.6575 18.0041 11.5569 18.1493C11.4563 18.2945 11.4126 18.4717 11.4341 18.647C11.4556 18.8224 11.5409 18.9837 11.6736 19.1003C14.2387 21.3191 16.5807 23.7832 18.6662 26.4577C18.7186 26.5283 18.7551 26.6094 18.773 26.6955C18.791 26.7816 18.7901 26.8705 18.7704 26.9562C18.7507 27.0419 18.7127 27.1223 18.6589 27.1919C18.6051 27.2614 18.5369 27.3185 18.4589 27.3592C17.5083 27.8282 16.4712 28.0962 15.4124 28.1463C14.3535 28.1965 13.2957 28.0278 12.305 27.6508C4.26207 24.739 5.62808 18.7416 0.797151 15.6784C0.730055 15.6443 0.67308 15.5932 0.631918 15.5302C0.590756 15.4672 0.566848 15.3945 0.562581 15.3193C0.558315 15.2442 0.57384 15.1693 0.607606 15.102C0.641371 15.0347 0.692196 14.9775 0.755001 14.936C2.80058 13.8264 9.46977 10.7485 16.4461 13.2672C18.0745 13.859 19.492 14.9183 20.5209 16.3124V16.321C20.4861 18.4095 21.0272 20.4672 22.0847 22.2685L22.0925 22.3123Z" fill="#4A4A4A"/>
</svg>
