<svg width="36" height="42" viewBox="0 0 36 42" fill="none" xmlns="http://www.w3.org/2000/svg">
<path d="M25.1789 8.26105V10.906C30.2039 13.4089 33.5737 18.6225 33.5737 24.435C33.5737 26.5297 33.1445 28.526 32.3701 30.341L5.70716 16.4125C7.17734 14.0791 9.27034 12.1557 11.7735 10.9068V8.26105C5.1809 11.0031 0.970581 17.4112 0.970581 24.435C0.970581 34.1109 8.80043 41.9406 18.4762 41.9406C28.1521 41.9406 35.9818 34.1107 35.9818 24.435C35.9818 17.3636 31.7301 10.9849 25.1789 8.26105ZM18.4762 39.5324C10.1512 39.5324 3.37873 32.7599 3.37873 24.435C3.37873 22.3654 3.80818 20.3699 4.58834 18.5449L10.6702 21.722L9.73704 23.6788C12.3625 25.3652 14.0432 25.2746 15.605 24.2999L17.9822 25.5418C15.2254 27.7725 12.4005 28.144 8.69423 25.8663L7.89071 27.5504C6.33312 30.8159 8.71357 34.5958 12.337 34.5958H24.6217C26.7537 34.5958 28.528 33.2595 29.2286 31.417L31.2503 32.4731C28.574 36.7112 23.8488 39.5324 18.4762 39.5324Z" fill="#4A4A4A"/>
<path d="M12.4863 17.9137L18.9939 21.3172C20.5592 19.8884 22.4304 18.5912 24.9958 19.0215L22.7707 14.3593V3.2497H22.8836C23.5486 3.2497 24.0877 2.7106 24.0877 2.04563C24.0877 1.38066 23.5486 0.841553 22.8836 0.841553H14.0792C13.4143 0.841553 12.8752 1.38066 12.8752 2.04563C12.8752 2.7106 13.4143 3.2497 14.0792 3.2497H14.1817V14.3593L12.4863 17.9137Z" fill="#4A4A4A"/>
<path d="M21.2849 22.5157L28.4539 26.2643L26.4624 22.0926C24.3604 20.9399 22.9698 21.1565 21.2849 22.5157Z" fill="#4A4A4A"/>
</svg>
