<svg width="53" height="51" viewBox="0 0 53 51" fill="none" xmlns="http://www.w3.org/2000/svg">
<path d="M13.3437 46.0203C13.3404 46.0183 13.3365 46.0176 13.3328 46.0184C13.3291 46.0192 13.3258 46.0213 13.3235 46.0244C13.3213 46.0275 13.3202 46.0313 13.3207 46.0351C13.3211 46.0389 13.3229 46.0424 13.3257 46.0449C14.527 47.2298 15.8509 48.2572 17.2973 49.127C17.7251 49.3843 18.156 49.6368 18.5899 49.8847C18.6117 49.8967 18.6121 49.9096 18.5913 49.9234C17.7821 50.4498 16.7215 50.0413 15.8651 49.6642C15.4276 49.4713 14.6412 49.0539 13.5059 48.412C7.34077 44.928 2.82394 38.9104 1.27733 32.0484C0.781963 29.8513 0.568522 27.5155 0.581156 25.0558C0.582486 24.7657 0.613737 24.5345 0.67491 24.3621C0.796813 24.016 1.00117 23.725 1.28797 23.4891C1.29334 23.4845 1.29995 23.4817 1.30695 23.4809C1.31395 23.4802 1.32102 23.4815 1.32725 23.4848C1.33347 23.4881 1.33857 23.4932 1.34188 23.4994C1.34519 23.5057 1.34656 23.5128 1.34582 23.5198C1.26824 24.3896 1.22968 25.2391 1.23012 26.0681C1.23056 26.4111 1.2709 26.7465 1.35114 27.0744C1.35213 27.0786 1.35462 27.0822 1.35814 27.0845C1.36165 27.0869 1.36595 27.0879 1.37021 27.0872C1.37447 27.0865 1.3784 27.0843 1.38126 27.081C1.38412 27.0776 1.3857 27.0734 1.38571 27.069C1.32232 25.6607 1.3753 24.2575 1.54463 22.8594C1.54472 22.8564 1.54599 22.8535 1.54818 22.8514C1.55036 22.8494 1.55327 22.8483 1.55627 22.8484C1.55926 22.8485 1.5621 22.8497 1.56416 22.8519C1.56622 22.8541 1.56733 22.857 1.56724 22.86C1.6027 23.5384 1.6539 24.2191 1.72083 24.9019C1.74832 25.1787 1.78666 25.4099 1.83587 25.5956C1.83733 25.6008 1.8405 25.6054 1.84487 25.6085C1.84924 25.6117 1.85454 25.6133 1.85993 25.6131C1.86531 25.6128 1.87046 25.6108 1.87454 25.6073C1.87862 25.6037 1.8814 25.5989 1.88241 25.5936C2.33633 23.1533 2.78294 20.7126 3.22223 18.2718C3.29604 17.8613 3.55403 17.2429 3.75683 16.7711C5.16647 13.501 7.00498 10.2476 9.49047 7.67067C12.7619 4.28001 16.8286 1.96757 21.3228 0.580123C21.6122 0.490825 21.858 0.447731 22.0602 0.450841C22.4538 0.45706 22.8308 0.550135 23.1912 0.730064C23.2147 0.741615 23.2138 0.751167 23.1886 0.758719C22.3326 1.01018 21.477 1.26208 20.622 1.51442C20.4056 1.5784 20.2106 1.67081 20.0368 1.79165C20.0312 1.79456 20.0269 1.79961 20.025 1.80567C20.0231 1.81173 20.0236 1.81831 20.0265 1.82397C20.0294 1.82962 20.0345 1.83389 20.0405 1.83583C20.0466 1.83776 20.0531 1.83721 20.0588 1.8343C21.2191 1.42113 22.4266 1.08059 23.6274 0.873341C23.6309 0.872778 23.6346 0.873531 23.6376 0.875456C23.6406 0.877382 23.6428 0.880347 23.6438 0.883792C23.6448 0.887237 23.6444 0.890924 23.6429 0.894155C23.6414 0.897386 23.6387 0.899938 23.6354 0.90133C22.8557 1.20032 22.0897 1.53108 21.3374 1.89361C21.3343 1.89517 21.3318 1.8976 21.3301 1.90061C21.3285 1.90362 21.3277 1.90706 21.328 1.9105C21.3283 1.91393 21.3296 1.9172 21.3317 1.91989C21.3339 1.92258 21.3368 1.92457 21.3401 1.92559C21.384 1.93892 21.4329 1.94248 21.487 1.93626C23.8351 1.65148 26.1829 1.36648 28.5306 1.08126C28.8506 1.04261 29.1547 1.0295 29.4428 1.04194C31.2095 1.12058 32.9975 1.37181 34.6931 1.88428C36.4436 2.41296 38.1939 2.94275 39.944 3.47365C40.0725 3.51275 40.1951 3.56584 40.3117 3.63292C41.0657 4.06653 41.8412 4.55145 42.6382 5.08768C43.4395 5.6268 44.2966 6.2299 44.8943 6.97561C45.9578 8.30353 47.0205 9.63168 48.0826 10.96C48.3309 11.2706 48.76 11.9279 49.3699 12.9319C50.4125 14.6468 51.2197 16.4654 51.7916 18.3878C51.9252 18.8369 51.89 19.2415 51.8142 19.6873C51.7517 20.0518 51.9345 20.6149 52.005 20.9868C53.2684 27.6361 51.739 34.5908 47.7475 40.0079C45.542 43.0021 42.6575 45.3672 39.3562 47.0565C37.7537 47.8762 36.2579 48.4982 34.8686 48.9224C33.2701 49.4103 31.4702 49.6228 29.4295 49.8647C28.9982 49.9158 28.5565 49.9476 28.1043 49.96C27.1109 49.988 26.0683 50.0587 25.1122 49.9967C23.4871 49.8905 21.8893 49.6222 20.3188 49.1917C19.2296 48.8925 18.1371 48.4293 17.0726 48.0041C15.897 47.535 14.7972 46.8912 13.7347 46.2155C13.615 46.1389 13.4714 46.0829 13.3437 46.0203ZM42.1336 6.36452C42.1308 6.36129 42.1292 6.35719 42.1292 6.35293C42.1291 6.34867 42.1306 6.34454 42.1333 6.34126C42.136 6.33798 42.1398 6.33577 42.144 6.33503C42.1482 6.33428 42.1525 6.33505 42.1562 6.33719C44.9123 8.2671 47.1411 10.8108 48.8659 13.7036C48.8743 13.7174 48.8848 13.719 48.8972 13.7083C48.9065 13.7003 48.9071 13.6892 48.8992 13.675C48.0724 12.2809 47.103 10.9527 45.9908 9.69054C44.6204 8.13582 43.0771 6.85765 41.3549 5.70744C41.3541 5.70653 41.3536 5.70537 41.3534 5.70414C41.3532 5.7029 41.3535 5.70165 41.354 5.70055C41.3546 5.69945 41.3555 5.69856 41.3567 5.698C41.3578 5.69745 41.359 5.69725 41.3603 5.69744C41.491 5.74676 41.5961 5.79829 41.6754 5.85205C44.9449 8.06184 47.6125 11.114 49.5834 14.5326C49.5842 14.534 49.5854 14.5351 49.5867 14.536L49.6093 14.5433C49.623 14.5477 49.6268 14.5433 49.6206 14.53C48.1431 11.2853 45.6909 8.61563 42.861 6.42982C41.0449 5.02727 39.1305 3.93991 37.118 3.16777C36.9155 3.09047 36.7009 3.03516 36.4744 3.00184C33.949 2.63221 31.4139 2.34632 28.869 2.14417C28.7684 2.13618 28.6689 2.14084 28.5705 2.15817C28.5146 2.16839 28.515 2.17439 28.5718 2.17616C30.6424 2.25347 32.6358 2.89855 34.6093 3.46965C38.2136 4.51324 41.3829 6.31787 44.117 8.88353C44.1194 8.88538 44.1224 8.88636 44.1254 8.8863C44.1284 8.88625 44.1314 8.88516 44.1337 8.88322C44.136 8.88128 44.1376 8.8786 44.1382 8.87562C44.1388 8.87265 44.1384 8.86956 44.137 8.86687C43.5492 7.969 42.8814 7.13488 42.1336 6.36452ZM49.082 18.8216C50.6592 23.5231 50.6552 28.4685 49.207 33.2013C48.8183 34.4715 48.4291 35.5215 48.0394 36.3514C47.0518 38.4554 45.7173 40.4518 44.0359 42.3404C44.0315 42.3453 44.0299 42.3497 44.0313 42.3537C44.0321 42.3564 44.0337 42.3584 44.0359 42.3597C44.0412 42.3628 44.0474 42.3613 44.0545 42.355C44.6922 41.7473 45.3644 41.1022 45.8425 40.3558C46.3213 39.6068 46.798 38.8691 47.2335 38.0867C47.8382 37.0005 48.2285 36.2879 48.4045 35.9489C49.3613 34.1069 50.1506 31.8425 50.5209 29.7567C50.5409 29.6443 50.5373 29.5299 50.5103 29.4135C50.4119 28.9916 50.2835 28.5625 50.3022 28.1233C50.3261 27.5369 50.3476 26.9502 50.3666 26.3633C50.4198 24.7408 50.2973 23.1339 49.9989 21.5425C49.8261 20.6176 49.4238 19.6873 49.1046 18.7976C49.0993 18.7825 49.0927 18.7819 49.0847 18.7956C49.0802 18.8041 49.0794 18.8127 49.082 18.8216Z" fill="#0BC1DF"/>
<path d="M25.5644 19.8081H22.8851V16.5393H29.262V34.8125H25.5644V19.8081Z" fill="white"/>
</svg>
