<svg width="38" height="32" viewBox="0 0 38 32" fill="none" xmlns="http://www.w3.org/2000/svg">
<path d="M37.7524 17.1682C37.8112 18.5751 37.3097 19.9478 36.3577 20.9853C35.4058 22.0228 34.0811 22.6403 32.6745 22.7024C32.5922 22.7062 32.5101 22.7081 32.4281 22.7081C32.0544 22.7078 31.6817 22.6674 31.3166 22.5874C30.2333 24.2601 28.8128 25.6882 27.1459 26.7804C25.4791 27.8727 23.6026 28.605 21.6366 28.9305C21.4041 29.6137 20.9401 30.1941 20.325 30.5715C19.7099 30.9489 18.9823 31.0995 18.2679 30.9974C17.5535 30.8952 16.8973 30.5466 16.4126 30.0119C15.928 29.4772 15.6454 28.79 15.6137 28.069C15.582 27.3481 15.8032 26.6387 16.2391 26.0635C16.6749 25.4883 17.298 25.0835 18.0007 24.919C18.7034 24.7546 19.4414 24.8408 20.0872 25.1627C20.7331 25.4847 21.2462 26.0222 21.5378 26.6823C24.3057 26.1704 26.8062 24.7034 28.6035 22.537C30.4009 20.3707 31.381 17.6423 31.3732 14.8275C31.3732 8.17738 25.963 2.76718 19.3129 2.76718C12.6628 2.76718 7.25258 8.17738 7.25258 14.8275C7.25222 16.8838 7.77775 18.906 8.77923 20.702C8.81317 20.7613 8.83865 20.825 8.85492 20.8913C8.95165 21.1602 8.94131 21.456 8.82603 21.7174C8.71076 21.9789 8.49938 22.186 8.23564 22.2959C7.58983 22.5677 6.89621 22.7077 6.19555 22.7076C6.11309 22.7076 6.03045 22.7057 5.94764 22.7018C4.54155 22.639 3.21777 22.0211 2.26655 20.9837C1.31534 19.9463 0.814333 18.574 0.873389 17.1677C0.89713 16.6069 0.883883 16.1066 0.870933 15.6228C0.858877 15.1672 0.846299 14.6961 0.866989 14.2046C0.928736 12.8315 1.51938 11.5356 2.51521 10.5882C3.51104 9.64088 4.8348 9.1156 6.20924 9.12241C8.41634 4.07264 13.4587 0.534485 19.3129 0.534485C25.167 0.534485 30.2095 4.07264 32.4166 9.12249C33.7912 9.11465 35.1154 9.63947 36.1114 10.5868C37.1074 11.5342 37.6978 12.8305 37.7587 14.2037C37.7795 14.696 37.7669 15.1671 37.7547 15.6226C37.7419 16.1065 37.7286 16.6071 37.7524 17.1682ZM28.6757 14.8275C28.6752 16.2619 28.3452 17.677 27.7112 18.9637C27.0772 20.2504 26.1562 21.3743 25.0192 22.2487C23.8821 23.1231 22.5595 23.7247 21.1531 24.0071C19.7468 24.2895 18.2944 24.2451 16.908 23.8773L13.1183 26.0659C12.927 26.1763 12.7074 26.2276 12.487 26.2132C12.2667 26.1987 12.0556 26.1193 11.8804 25.9849C11.7052 25.8504 11.5738 25.6671 11.5029 25.458C11.4319 25.2489 11.4245 25.0235 11.4817 24.8102L12.4502 21.1971C10.8463 19.4634 9.9538 17.1893 9.95043 14.8275C9.95043 9.66339 14.1502 5.4625 19.3129 5.4625C24.4755 5.4625 28.6757 9.66339 28.6757 14.8275ZM16.7099 14.8275C16.7099 14.5314 16.5923 14.2475 16.383 14.0381C16.1736 13.8287 15.8896 13.7111 15.5936 13.7111H15.5917C15.371 13.7115 15.1554 13.7774 14.9721 13.9003C14.7888 14.0232 14.646 14.1977 14.5618 14.4017C14.4777 14.6057 14.4558 14.8301 14.4992 15.0465C14.5425 15.263 14.6489 15.4617 14.8052 15.6176C14.9614 15.7735 15.1603 15.8796 15.3768 15.9225C15.5933 15.9654 15.8176 15.9432 16.0215 15.8586C16.2253 15.7741 16.3996 15.631 16.5221 15.4475C16.6447 15.2639 16.7101 15.0482 16.7101 14.8275H16.7099ZM20.4294 14.8275C20.4294 14.7909 20.4274 14.7544 20.4235 14.7181C20.42 14.6816 20.4145 14.6453 20.4072 14.6094C20.4005 14.5736 20.3916 14.5383 20.3803 14.5037C20.37 14.4688 20.3573 14.4345 20.3439 14.4003C20.3305 14.3661 20.3142 14.3341 20.2971 14.302C20.28 14.2699 20.2614 14.2386 20.2412 14.2083C20.2209 14.1777 20.199 14.1481 20.1757 14.1197C20.1527 14.0913 20.1282 14.0642 20.1021 14.0386C20.0768 14.0125 20.0492 13.988 20.0209 13.9642C19.9926 13.9418 19.9628 13.9195 19.9323 13.8994C19.902 13.8792 19.8708 13.8606 19.8386 13.8436C19.8065 13.8265 19.7731 13.8109 19.7395 13.7967C19.706 13.7827 19.6718 13.7705 19.6369 13.7602C19.5673 13.7379 19.4954 13.7234 19.4226 13.7171C19.3132 13.7066 19.203 13.7118 19.0951 13.7327C19.0592 13.74 19.0237 13.7492 18.9888 13.7602C18.9539 13.7705 18.9196 13.7827 18.8861 13.7967C18.8526 13.8109 18.8191 13.8265 18.7871 13.8436C18.7551 13.8607 18.7238 13.8793 18.6932 13.8994C18.6626 13.9195 18.6329 13.9418 18.6055 13.9642C18.5765 13.988 18.5497 14.0125 18.5236 14.0386C18.4975 14.0642 18.4729 14.0913 18.4499 14.1197C18.4268 14.1481 18.4052 14.1777 18.3852 14.2083C18.3647 14.2385 18.3459 14.2698 18.3286 14.302C18.3115 14.3339 18.296 14.3667 18.2824 14.4003C18.2683 14.4341 18.2559 14.4687 18.2452 14.5037C18.2349 14.538 18.2259 14.5737 18.2185 14.6094C18.2111 14.6453 18.2056 14.6816 18.202 14.7181C18.1984 14.7545 18.1968 14.791 18.1968 14.8275C18.1968 14.8639 18.1984 14.9012 18.202 14.9376C18.2057 14.9738 18.2112 15.0099 18.2185 15.0455C18.2259 15.0813 18.2349 15.117 18.2452 15.152C18.2559 15.1868 18.2683 15.2211 18.2824 15.2547C18.296 15.2885 18.3115 15.3215 18.3286 15.3536C18.3457 15.3857 18.3651 15.4169 18.3852 15.4474C18.4052 15.4778 18.4268 15.5071 18.4499 15.5352C18.4731 15.5638 18.4977 15.5911 18.5236 15.6171C18.5497 15.6424 18.5765 15.6677 18.6055 15.6908C18.6335 15.714 18.6628 15.7356 18.6932 15.7555C18.7238 15.7756 18.755 15.795 18.7871 15.8121C18.8517 15.8458 18.9192 15.8737 18.9888 15.8954C19.0237 15.9059 19.0594 15.9148 19.0951 15.9222C19.1669 15.9369 19.2399 15.9442 19.3132 15.9438C19.6089 15.943 19.8924 15.8256 20.1021 15.6171C20.1535 15.5649 20.2001 15.5081 20.2412 15.4474C20.2613 15.4169 20.2799 15.3857 20.2971 15.3536C20.3142 15.3216 20.3298 15.2882 20.3439 15.2547C20.3581 15.2212 20.37 15.1862 20.3803 15.152C20.3915 15.1171 20.4004 15.0815 20.4072 15.0455C20.4145 15.0099 20.4199 14.9739 20.4235 14.9376C20.4273 14.901 20.4292 14.8642 20.4292 14.8273L20.4294 14.8275ZM24.1506 14.8275C24.1506 14.5314 24.033 14.2475 23.8236 14.0381C23.6143 13.8287 23.3303 13.7111 23.0343 13.7111H23.0321C22.8114 13.7116 22.5958 13.7774 22.4125 13.9003C22.2292 14.0232 22.0864 14.1977 22.0023 14.4018C21.9181 14.6058 21.8963 14.8302 21.9396 15.0466C21.9829 15.263 22.0894 15.4617 22.2456 15.6176C22.4019 15.7735 22.6008 15.8796 22.8173 15.9225C23.0338 15.9654 23.2581 15.9432 23.462 15.8586C23.6658 15.7741 23.8401 15.631 23.9626 15.4475C24.0852 15.2639 24.1506 15.0482 24.1506 14.8275Z" fill="#4A4A4A"/>
</svg>
