<svg width="47" height="27" viewBox="0 0 47 27" fill="none" xmlns="http://www.w3.org/2000/svg">
<path d="M19.442 25.6982C20.9373 24.3042 21.1676 22.1208 19.9563 20.8214C18.745 19.522 16.5508 19.5986 15.0554 20.9926C13.5601 22.3865 13.3298 24.5699 14.5411 25.8693C15.7524 27.1687 17.9466 27.0921 19.442 25.6982Z" fill="#4A4A4A"/>
<path d="M39.2279 25.6996C40.7232 24.3057 40.9535 22.1223 39.7422 20.8229C38.5309 19.5234 36.3367 19.6001 34.8414 20.994C33.346 22.388 33.1157 24.5714 34.327 25.8708C35.5383 27.1702 37.7325 27.0936 39.2279 25.6996Z" fill="#4A4A4A"/>
<path d="M3.75142 8.63766C3.75142 7.77471 3.05186 7.07515 2.18891 7.07515C1.32596 7.07515 0.626399 7.77471 0.626399 8.63766C0.626399 9.50061 1.32596 10.2002 2.18891 10.2002C3.05186 10.2002 3.75142 9.50061 3.75142 8.63766Z" fill="#4A4A4A"/>
<path d="M31.8373 23.0187C32.3927 20.2734 34.9861 18.0919 37.7734 18.0919C40.4574 18.0919 42.3919 20.1151 42.3388 22.7167C45.2414 22.7927 46.0495 18.9704 46.0495 18.9704C46.2938 17.9015 46.6589 15.8179 46.9646 13.7727C47.0647 13.1412 46.9877 12.4944 46.7422 11.9041C45.9834 10.1328 45.0665 8.43364 44.0024 6.82716C42.9958 5.3255 41.3075 4.43604 39.3803 4.40401C38.231 4.38571 37.1027 4.37473 36.2507 4.37473L36.2434 4.3674C36.1336 2.52991 34.7939 1.12251 32.9134 0.954133C31.6899 0.845237 26.8436 0.765625 24.5175 0.765625C23.5932 0.765625 22.2673 0.778436 20.9258 0.800398V0.794908H4.78547C4.58018 0.794787 4.37689 0.835132 4.1872 0.913636C3.99752 0.99214 3.82517 1.10726 3.68001 1.25242C3.53485 1.39758 3.41973 1.56993 3.34123 1.75961C3.26272 1.94929 3.22238 2.15259 3.2225 2.35788V2.3652C3.2225 2.77778 3.3864 3.17346 3.67814 3.4652C3.96988 3.75695 4.36556 3.92084 4.77815 3.92084H8.02945C8.42095 3.94971 8.78706 4.12552 9.05436 4.41302C9.32166 4.70051 9.47039 5.07844 9.47071 5.471V5.47924C9.47131 5.68472 9.43139 5.8883 9.35323 6.07834C9.27506 6.26838 9.1602 6.44114 9.01519 6.58673C8.87019 6.73233 8.69791 6.8479 8.50819 6.92684C8.31847 7.00578 8.11506 7.04654 7.90957 7.04678H6.24228C5.828 7.04678 5.43069 7.21135 5.13775 7.50429C4.84481 7.79724 4.68023 8.19455 4.68023 8.60883C4.68011 8.81404 4.72043 9.01726 4.79887 9.20688C4.87732 9.39651 4.99236 9.56881 5.13742 9.71396C5.28249 9.85911 5.45473 9.97425 5.6443 10.0528C5.83388 10.1314 6.03708 10.1718 6.24228 10.1718H7.90957C8.3241 10.1718 8.72164 10.3365 9.01476 10.6296C9.30787 10.9227 9.47254 11.3202 9.47254 11.7348C9.47254 12.1493 9.30787 12.5468 9.01476 12.84C8.72164 13.1331 8.3241 13.2977 7.90957 13.2977H1.67234C1.25798 13.2977 0.860568 13.4623 0.567481 13.7552C0.274394 14.0481 0.109618 14.4454 0.109375 14.8598C0.109375 15.2743 0.274044 15.6719 0.567158 15.965C0.860271 16.2581 1.25782 16.4228 1.67234 16.4228H7.90957C8.3241 16.4228 8.72164 16.5874 9.01476 16.8805C9.30787 17.1736 9.47254 17.5712 9.47254 17.9857C9.47205 18.3999 9.30717 18.797 9.01411 19.0897C8.72105 19.3824 8.32378 19.5469 7.90957 19.5469H5.98057C5.56629 19.5469 5.16897 19.7114 4.87603 20.0044C4.58309 20.2973 4.41852 20.6946 4.41852 21.1089C4.41852 21.5233 4.58306 21.9207 4.87598 22.2138C5.16889 22.5069 5.5662 22.6716 5.98057 22.6719L12.1354 22.6673L12.647 21.3926C13.6947 19.4599 15.7793 18.091 17.9865 18.091C20.7748 18.091 22.755 20.2744 22.5372 23.0214H31.8363M16.3348 7.77427H14.2374C14.2354 7.77443 14.2335 7.77523 14.2321 7.77655C14.2306 7.77788 14.2296 7.77964 14.2292 7.78159L14.0361 9.15422C14.0358 9.15532 14.0358 9.15648 14.036 9.15759C14.0362 9.1587 14.0367 9.15974 14.0374 9.16063C14.0382 9.16152 14.0391 9.16223 14.0401 9.1627C14.0411 9.16318 14.0423 9.16341 14.0434 9.16337H15.6045C15.6812 9.1612 15.7573 9.17615 15.8274 9.20713C15.8975 9.23812 15.9599 9.28436 16.0098 9.34249C16.0598 9.40062 16.0962 9.46917 16.1163 9.54314C16.1364 9.61711 16.1398 9.69464 16.1261 9.77008C16.0994 9.93588 16.0157 10.0872 15.8894 10.1979C15.7631 10.3086 15.6022 10.3719 15.4343 10.3768H13.8714C13.8695 10.3767 13.8676 10.3773 13.8661 10.3785C13.8646 10.3797 13.8635 10.3813 13.8631 10.3832L13.5831 12.3772C13.5564 12.543 13.4726 12.6943 13.3464 12.805C13.2201 12.9157 13.0592 12.979 12.8913 12.9839C12.8147 12.9861 12.7386 12.9711 12.6685 12.9401C12.5984 12.9091 12.5361 12.8629 12.4862 12.8047C12.4363 12.7466 12.4 12.678 12.38 12.604C12.36 12.53 12.3568 12.4525 12.3706 12.3772L13.0972 7.20509C13.126 7.02998 13.2148 6.87033 13.3483 6.75347C13.4819 6.63661 13.6519 6.56982 13.8293 6.56453H16.5041C16.5807 6.56232 16.6568 6.57726 16.7269 6.60825C16.797 6.63925 16.8592 6.68551 16.9091 6.74366C16.9591 6.80182 16.9953 6.87039 17.0153 6.94436C17.0353 7.01834 17.0386 7.09585 17.0247 7.17123C16.9976 7.33621 16.9139 7.48662 16.788 7.59665C16.6622 7.70668 16.5019 7.76948 16.3348 7.77427ZM21.9406 6.97632C22.1585 7.16963 22.3118 7.42516 22.3798 7.70839C22.4559 8.02924 22.4683 8.36189 22.4164 8.68753C22.3528 9.19423 22.1455 9.67212 21.8189 10.0647C21.6195 10.3005 21.3662 10.4848 21.0804 10.6019C21.0791 10.6032 21.0784 10.605 21.0784 10.6069C21.0784 10.6088 21.0791 10.6106 21.0804 10.612L21.6002 12.1118C21.7402 12.5144 21.3806 12.9839 20.9331 12.9839H20.9038C20.7952 12.987 20.6885 12.9556 20.599 12.8941C20.5095 12.8325 20.4419 12.7441 20.406 12.6416L19.7773 10.8114C19.7764 10.8101 19.7752 10.8089 19.7738 10.8081C19.7723 10.8073 19.7707 10.8069 19.7691 10.8069H18.4331C18.4312 10.807 18.4294 10.8076 18.4279 10.8088C18.4265 10.8099 18.4254 10.8115 18.4248 10.8133L18.2052 12.3762C18.1785 12.542 18.0947 12.6933 17.9685 12.8041C17.8422 12.9148 17.6813 12.9781 17.5134 12.9829C17.4368 12.9852 17.3607 12.9702 17.2906 12.9392C17.2205 12.9082 17.1582 12.862 17.1083 12.8038C17.0584 12.7457 17.0221 12.6771 17.0021 12.6031C16.9821 12.5291 16.9789 12.4516 16.9927 12.3762L17.7193 7.20417C17.7481 7.02906 17.8369 6.86941 17.9704 6.75255C18.104 6.6357 18.274 6.5689 18.4514 6.56361H20.5195C20.5195 6.56361 21.4272 6.53525 21.9406 6.97632ZM27.6324 7.12822C27.6076 7.28309 27.5294 7.42443 27.4115 7.52784C27.2935 7.63125 27.1432 7.69025 26.9864 7.69466H24.5806C24.5788 7.69476 24.577 7.69543 24.5755 7.69657C24.574 7.69772 24.5729 7.69929 24.5724 7.70107L24.3811 9.05905C24.3808 9.06015 24.3808 9.06131 24.3811 9.06242C24.3813 9.06353 24.3818 9.06457 24.3825 9.06546C24.3832 9.06635 24.3841 9.06706 24.3851 9.06753C24.3862 9.06801 24.3873 9.06824 24.3884 9.0682H26.2571C26.3286 9.06609 26.3997 9.07999 26.4652 9.1089C26.5307 9.1378 26.5889 9.18098 26.6356 9.23528C26.6823 9.28957 26.7162 9.35361 26.7349 9.42271C26.7537 9.4918 26.7567 9.56421 26.7439 9.63464C26.719 9.78952 26.6409 9.93085 26.5229 10.0343C26.405 10.1377 26.2546 10.1967 26.0978 10.2011H24.2283C24.2264 10.2012 24.2247 10.2019 24.2232 10.203C24.2217 10.2041 24.2206 10.2057 24.2201 10.2075L23.9904 11.8418C23.9904 11.8441 23.9912 11.8463 23.9927 11.848C23.9943 11.8497 23.9964 11.8508 23.9986 11.851H26.4026C26.4741 11.8489 26.5452 11.8628 26.6107 11.8917C26.6762 11.9206 26.7344 11.9638 26.7811 12.0181C26.8278 12.0723 26.8617 12.1364 26.8804 12.2055C26.8992 12.2746 26.9022 12.347 26.8894 12.4174C26.8645 12.5723 26.7864 12.7136 26.6684 12.817C26.5505 12.9205 26.4001 12.9795 26.2433 12.9839H23.2601C23.1797 12.985 23.0999 12.9684 23.0265 12.9353C22.9532 12.9022 22.888 12.8533 22.8356 12.7922C22.7832 12.7311 22.7449 12.6592 22.7234 12.5816C22.7019 12.504 22.6977 12.4227 22.7111 12.3433L23.4331 7.20783C23.4619 7.03273 23.5507 6.87307 23.6842 6.75622C23.8178 6.63936 23.9878 6.57256 24.1652 6.56727H27.1474C27.2183 6.56559 27.2886 6.57961 27.3534 6.60832C27.4182 6.63703 27.4759 6.67973 27.5223 6.73335C27.5686 6.78696 27.6025 6.85017 27.6216 6.91844C27.6406 6.98671 27.6443 7.05835 27.6324 7.12822ZM32.6297 7.12822C32.6048 7.28309 32.5267 7.42443 32.4087 7.52784C32.2908 7.63125 32.1405 7.69025 31.9837 7.69466H29.5779C29.576 7.69476 29.5743 7.69543 29.5728 7.69657C29.5713 7.69772 29.5702 7.69929 29.5697 7.70107L29.3793 9.05905C29.379 9.06015 29.379 9.06131 29.3793 9.06242C29.3795 9.06353 29.38 9.06457 29.3807 9.06546C29.3814 9.06635 29.3823 9.06706 29.3834 9.06753C29.3844 9.06801 29.3855 9.06824 29.3867 9.0682H31.2553C31.3268 9.06609 31.3979 9.07999 31.4634 9.1089C31.5289 9.1378 31.5871 9.18098 31.6338 9.23528C31.6805 9.28957 31.7144 9.35361 31.7331 9.42271C31.7519 9.4918 31.7549 9.56421 31.7421 9.63464C31.7172 9.78952 31.6391 9.93085 31.5211 10.0343C31.4032 10.1377 31.2528 10.1967 31.096 10.2011H29.2256C29.2237 10.2012 29.2219 10.2019 29.2205 10.203C29.219 10.2041 29.2179 10.2057 29.2174 10.2075L28.9877 11.8418C28.9877 11.8441 28.9885 11.8463 28.99 11.848C28.9915 11.8497 28.9936 11.8508 28.9959 11.851H31.3998C31.4714 11.8489 31.5425 11.8628 31.608 11.8917C31.6735 11.9206 31.7317 11.9638 31.7784 12.0181C31.8251 12.0723 31.859 12.1364 31.8777 12.2055C31.8965 12.2746 31.8995 12.347 31.8867 12.4174C31.8618 12.5723 31.7836 12.7136 31.6657 12.817C31.5478 12.9205 31.3974 12.9795 31.2406 12.9839H28.2574C28.1769 12.985 28.0972 12.9684 28.0238 12.9353C27.9505 12.9022 27.8853 12.8533 27.8329 12.7922C27.7805 12.7311 27.7422 12.6592 27.7207 12.5816C27.6992 12.504 27.695 12.4227 27.7084 12.3433L28.4304 7.20783C28.4592 7.03273 28.5479 6.87307 28.6815 6.75622C28.8151 6.63936 28.9851 6.57256 29.1625 6.56727H32.1447C32.2156 6.56559 32.2859 6.57961 32.3507 6.60832C32.4155 6.63703 32.4732 6.67973 32.5195 6.73335C32.5659 6.78696 32.5998 6.85017 32.6189 6.91844C32.6379 6.98671 32.6416 7.05835 32.6297 7.12822ZM36.107 6.54165C36.9242 6.54165 37.9821 6.55263 39.0436 6.57002C40.3302 6.59107 41.4557 7.18221 42.1311 8.19064C42.8524 9.27812 43.5008 10.4123 44.072 11.5856C44.3739 12.2005 43.8185 13.0012 43.091 13.0012H35.2899L36.107 6.54165Z" fill="#4A4A4A"/>
<path d="M20.0299 9.67491H18.5841L18.8586 7.69466H20.3035C20.3035 7.69466 21.3641 7.62603 21.1902 8.68478C21.1948 8.68478 21.0731 9.67491 20.0299 9.67491Z" fill="#4A4A4A"/>
</svg>
