<svg width="31" height="34" viewBox="0 0 31 34" fill="none" xmlns="http://www.w3.org/2000/svg">
<path d="M26.5257 7.48133C24.1211 5.04307 21.009 3.49264 17.6316 3.021L18.5943 2.07733C18.9757 1.70346 18.9757 1.09734 18.5943 0.723469C18.2129 0.349664 17.5946 0.349664 17.2132 0.723469L14.74 3.14781C14.3586 3.52162 14.3586 4.1278 14.74 4.50167L17.2131 6.92601C17.4038 7.11295 17.6537 7.20645 17.9036 7.20645C18.1535 7.20645 18.4035 7.11295 18.5941 6.92601C18.9755 6.55221 18.9755 5.94602 18.5941 5.57215L18.0411 5.02999C20.7243 5.54471 23.1852 6.84885 25.1213 8.81202C27.5631 11.2881 28.9078 14.5488 28.9078 17.9936C28.908 25.2785 22.862 31.2052 15.4306 31.2052C7.99918 31.2052 1.95318 25.2785 1.95318 17.9937C1.95318 15.2139 2.82345 12.5549 4.46998 10.304C6.08233 8.09976 8.30505 6.45501 10.898 5.54758C11.406 5.36978 11.6707 4.82205 11.4894 4.32405C11.3081 3.82611 10.7492 3.56661 10.2412 3.74436C7.27221 4.78344 4.72767 6.66594 2.88263 9.18825C0.996773 11.7664 0 14.8113 0 17.9938C0 22.0341 1.60506 25.8326 4.51953 28.6896C7.434 31.5464 11.3089 33.1199 15.4306 33.1199C19.5522 33.1199 23.4271 31.5465 26.3416 28.6896C29.2561 25.8326 30.8611 22.0341 30.8611 17.9937C30.8611 14.0496 29.3214 10.3162 26.5257 7.48133Z" fill="#4A4A4A"/>
<path d="M5.3967 17.9937C5.3967 23.4172 9.89787 27.8296 15.4306 27.8296C20.9632 27.8296 25.4644 23.4172 25.4644 17.9937C25.4644 12.5702 20.9632 8.15765 15.4306 8.15765C9.8978 8.15765 5.3967 12.5701 5.3967 17.9937ZM16.0301 18.8458C14.6243 18.3586 13.8098 17.9747 13.2189 17.5203C12.4917 16.9612 12.1588 15.9955 12.3501 15.0002C12.5576 13.9205 13.3258 13.0609 14.3548 12.757C14.369 12.7528 14.383 12.7495 14.3972 12.7454V12.3599C14.3972 11.8312 14.8345 11.4026 15.3738 11.4026C15.9131 11.4026 16.3504 11.8312 16.3504 12.3599V12.6844C17.0322 12.841 17.5082 13.1465 17.7006 13.2875C18.1325 13.6041 18.2209 14.204 17.898 14.6275C17.575 15.051 16.9632 15.1375 16.5311 14.821C16.3243 14.6695 15.7536 14.3435 14.9181 14.5903C14.4246 14.736 14.2969 15.2122 14.2695 15.3547C14.2154 15.6362 14.2775 15.9011 14.4242 16.0138C14.9351 16.4065 15.8517 16.7533 16.6809 17.0406C18.1979 17.5662 19.0414 18.9438 18.7799 20.4685C18.6516 21.217 18.2674 21.9116 17.6981 22.4244C17.3067 22.7769 16.8505 23.0276 16.3504 23.169V23.6274C16.3504 24.1561 15.9131 24.5847 15.3738 24.5847C14.8345 24.5847 14.3972 24.1561 14.3972 23.6274V23.2632C13.7475 23.1883 13.2054 22.9922 12.4763 22.5246C12.0249 22.2352 11.8984 21.6418 12.1936 21.1994C12.4889 20.7568 13.0942 20.6329 13.5456 20.9223C14.2216 21.3558 14.4772 21.3957 15.3673 21.3896C16.2437 21.3839 16.7522 20.7435 16.8538 20.151C16.9035 19.8616 16.9226 19.1551 16.0301 18.8458Z" fill="#4A4A4A"/>
</svg>
